<svg width="141" height="214" viewBox="0 0 141 214" fill="none" xmlns="http://www.w3.org/2000/svg">
<path opacity="0.98" d="M93.87 0.940077C97.02 0.150077 99.61 3.29008 101.65 5.24008C102.13 6.18008 102.89 6.75008 103.95 6.96008C107.03 8.99008 109.83 11.8201 111.51 15.1701C111.57 15.2801 111.7 15.5001 111.76 15.6101L112.51 17.3201C112.55 17.4001 112.63 17.5601 112.66 17.6501C113.65 19.2801 119.78 32.53 119.5 34.5C119.25 35.01 118.25 36.49 118 37C116.27 33.01 110.4 16.7801 107.95 13.1401C104.74 9.38007 100.57 6.62008 96.47 3.94008C94.98 7.11008 94.11 10.5101 93.62 13.9701C88.15 15.3601 82.4001 15.8201 77.2101 18.1801C72.9301 20.1201 68.26 21.0101 64 22.9901C60.01 24.6701 56.59 27.4101 52.66 29.2101C52.69 28.4301 52.73 26.8801 52.75 26.1001C46.9 25.3501 41 26.0301 35.26 27.2201C36.32 27.7801 37.3901 28.3401 38.4601 28.9101C42.0601 27.4701 46.62 26.7601 50.0201 29.0601L50.2 30.3201C46.81 30.5001 43.42 30.0101 40.03 30.1801C43.28 33.7001 44.86 38.5401 44.61 43.3001C43.82 48.2401 42.48 53.1101 42.43 58.1401C51.33 55.2701 60.72 54.0801 70.05 53.9301C72.23 53.5801 72.75 55.8801 73.26 57.4301C67.49 58.8101 62 61.1301 56.5 63.3001C50.52 65.6001 46.13 70.4401 41.67 74.8301C41.6 74.3201 41.45 73.2901 41.37 72.7801C43.9 69.9001 46.88 67.4301 49.97 65.1701C54.56 61.7501 60.14 60.1701 65.42 58.1801C60.52 58.5201 55.64 59.5901 51.06 61.3501C44.76 65.6301 39.36 71.0501 34.23 76.6501L34.14 76.3101C34.12 75.7801 34.08 74.7301 34.05 74.2001C34.68 73.5101 35.4 72.9101 36.2 72.4101C37.97 71.3201 39.58 69.8001 40.25 67.7801C40.3 67.6701 40.4 67.4401 40.45 67.3301L41.0701 66.0101C40.5101 66.0801 39.3801 66.2401 38.8201 66.3101L38.48 66.3501L38.2101 66.5901C37.3901 67.3101 36.56 68.0301 35.72 68.7401C34.44 69.4601 33.2301 70.3101 31.9601 71.0501L30.55 71.5401L31.23 69.7701C34.07 66.6201 38.96 65.5101 41.04 61.8301C41.36 60.5201 39.77 59.6601 38.83 59.1201L40.09 58.6001C41.4 56.9601 40.7401 54.2301 41.0201 52.1701C41.0501 51.5701 41.12 50.3601 41.15 49.7601C41.27 49.6001 41.49 49.2601 41.61 49.1001C41.82 47.6201 42.04 46.1401 42.26 44.6601C42.31 44.5201 42.4101 44.2501 42.4601 44.1101L42.8501 42.9401C43.4401 41.6301 43.03 40.1101 42.41 38.9001C42.16 38.3501 41.67 37.2601 41.42 36.7101C41.4 36.6501 41.34 36.5401 41.31 36.4801L40.4601 34.7201C40.4201 34.6501 40.3601 34.5201 40.3201 34.4501L39.7101 33.3101C37.2901 32.3501 35.7 30.1701 33.64 28.6601C33.55 28.5901 33.36 28.4301 33.26 28.3601C33.17 27.5301 33 25.8701 32.91 25.0301C33.65 24.9701 35.13 24.8401 35.87 24.7801C40.87 24.6901 45.71 23.1301 50.73 23.4101L50.65 24.5601C53.48 24.2001 57.03 25.6201 59.15 23.1201C60.5 21.8401 62.2 20.8701 64.12 20.8701C65.61 20.9001 67.0001 20.2801 68.0201 19.2001H69.41C70.42 19.3001 71.28 18.9701 72 18.2101L73.2701 17.4401C73.3401 17.4101 73.47 17.3401 73.53 17.3101L75.2 16.5301C75.34 16.4401 75.62 16.2501 75.75 16.1601L77.3801 16.1701C77.8301 15.9101 78.73 15.3801 79.18 15.1101L80.02 15.0001C80.5 14.7701 81.46 14.3001 81.94 14.0701L83.05 14.0201C84.09 14.1001 85.07 13.8801 85.99 13.3601C86.8 13.1201 88.43 12.6601 89.24 12.4301C89.32 12.4101 89.48 12.3601 89.56 12.3301L90.99 11.8101C91.25 11.3701 91.7701 10.4901 92.0401 10.0501L92.0701 8.92007C92.3001 8.44007 92.7501 7.48007 92.9801 7.00007C93.2001 6.37007 93.65 5.10008 93.87 4.47008C93.87 4.04008 93.8801 3.18007 93.8801 2.75007V2.25007L93.87 0.940077ZM42.47 59.6601C42.48 60.2101 42.5 61.3101 42.51 61.8601C43.71 61.8201 44.95 61.7901 46.05 61.2401C51.52 58.9301 57.33 57.6101 63.11 56.3801C56.07 55.9101 49.28 58.2801 42.47 59.6601Z" fill="#1F1E1B"/>
<path opacity="0.98" d="M95.55 14.57C96.13 12.62 96.2401 10.31 97.9301 8.91998C99.3601 7.91998 100.5 9.67999 101.61 10.32C103.63 12.17 106.04 14.28 106.06 17.26C102.75 16.26 101.88 11.4 98.2901 11.13C97.6001 12.69 97.7001 14.4 97.7001 16.06C96.9801 15.57 96.26 15.07 95.55 14.57Z" fill="#1F1E1B"/>
<path opacity="0.98" d="M113.87 25.77C114.8 25.75 115.62 26.04 116.33 26.64L116.98 27.52L117.11 28.65L116.75 29.39C115.18 28.87 114.46 27.17 113.87 25.77Z" fill="#1F1E1B"/>
<path opacity="0.98" d="M93.72 40.93C90.82 37.01 89.6699 30.75 93.7999 27.79C96.7999 28.8 100.56 27.29 102.93 29.95C105.56 32.4 105.76 36.59 103.37 39.29C101.21 42.18 96.76 42.1 93.72 40.93C96.44 39.11 100.73 39.7301 102.5 36.6001C103.73 34.7101 102.53 32.42 100.79 31.39C98.76 30.52 96.5599 31.1501 94.4899 31.4601C95.9399 33.5601 97.6854 36.8428 98.6854 39.1928C96.8254 40.1528 95.65 40.12 93.72 40.93Z" fill="#1F1E1B"/>
<path opacity="0.98" d="M116.52 30.98C118.16 32.22 119.67 33.62 121.16 35.04C125 35.4 129.41 33.87 132.81 36.22C132.91 36.74 133.11 37.76 133.2 38.28C132.52 37.98 131.15 37.4 130.46 37.1C127.92 36.97 125.38 36.99 122.84 37.02C123.12 37.52 123.68 38.53 123.96 39.04C125.85 41.63 129.7 40.04 132.42 40.68C133.09 40.86 134.44 41.2 135.11 41.38L135.41 41.65L135.79 41.69C136.49 41.77 137.89 41.93 138.59 42.01C139 42.45 139.84 43.31 140.26 43.75C139.17 44.98 138 45.31 136.97 43.8C136.48 43.6 135.49 43.2 134.99 43L133.98 42.88C133.51 42.65 132.56 42.18 132.09 41.94C130.03 42.52 126.6 40.78 125.68 43.39C125.64 43.46 125.56 43.62 125.52 43.69C125.32 44.15 124.93 45.06 124.73 45.51L123.7 46.34C122.85 49.34 124.72 52.3 124.33 55.37C124.31 55.82 124.28 56.72 124.27 57.17L124.24 57.69C123.88 58.04 123.15 58.72 122.78 59.06C122.53 59.35 122.03 59.92 121.78 60.2L121.97 60.96C122.02 61.39 122.14 62.25 122.19 62.67C121.8 62.97 121.01 63.56 120.61 63.86C119.4 64.66 118.73 66.16 118.81 67.59L118.78 69.22C118.68 69.38 118.47 69.69 118.37 69.85C118.22 70.48 117.92 71.72 117.77 72.35C117.7 72.45 117.58 72.66 117.52 72.77L116.65 74.27L116.49 74.53L116.39 74.82L115.73 76.5C115.7 76.55 115.64 76.66 115.61 76.71L114.8 77.88C114.58 78.36 114.14 79.31 113.92 79.79L114.05 81.12C112.38 81.63 112.16 83.52 112.1 85.01C111.94 87.39 111.3 89.71 110.58 91.98C109.97 93.54 109.83 95.25 110.07 96.91L110.14 98.1C109.6 99.4 109.06 100.7 108.62 102.04L108.72 102.58C109.17 105 109.74 108.07 107.05 109.35C107.02 108.49 106.95 106.76 106.92 105.9C106.92 104.65 106.79 103.42 106.54 102.2L106.08 102.23L104.81 102.33C103.11 103.83 104 106.96 104.17 109.06L104.3 110.11C104.46 112.61 104.78 115.1 105.19 117.58L104.99 119.05L104.88 119.73C105.34 120.1 106.26 120.82 106.73 121.18C107.14 121.71 107.97 122.75 108.39 123.27L108.52 123.55L108.72 123.77C109.44 124.61 110.18 125.44 110.94 126.25C111.05 126.72 111.28 127.66 111.39 128.13L111.47 128.5L111.74 128.77L111.99 130.04C112.05 131.38 112.64 132.61 113.64 133.51L113.86 134.14C114 136 114.37 137.91 115.6 139.39L116.03 140.05C116.21 140.56 116.58 141.56 116.77 142.06C117.08 142.34 117.69 142.89 118 143.17C118.04 143.74 118.11 144.88 118.14 145.44C118.47 146.24 119.13 147.84 119.45 148.64C118.14 148.65 116.83 148.67 115.52 148.7C115.44 151.96 115.48 155.22 115.41 158.49C115.24 158.85 114.9 159.58 114.73 159.94C114.03 161.04 113.7 162.33 113.87 163.63V165C113.67 165.49 113.26 166.48 113.06 166.97L112.74 168.08C112.08 168.94 111.83 169.91 111.97 170.97L112.05 172.15C110.36 172.54 110.25 174.47 110.05 175.88L109.84 177.09C109.67 177.57 109.33 178.54 109.15 179.02C108.65 179.01 107.63 179 107.13 179C107.1 181.51 106.58 183.97 105.68 186.31C105.63 186.46 105.51 186.76 105.45 186.91C105.27 187.78 104.92 189.52 104.74 190.39C104.68 190.5 104.56 190.73 104.49 190.85L103.69 192.41C103.65 192.49 103.57 192.64 103.53 192.72L102.65 194.26L102.49 194.52L102.37 194.81L101.67 196.46C101.64 196.54 101.57 196.69 101.54 196.77L100.98 198C107.64 198.06 114.3 197.88 120.96 198.05C121.35 198.2 122.14 198.5 122.53 198.65C123.88 199.03 125.21 199.52 126.43 200.25C126.56 200.31 126.82 200.45 126.96 200.52L126.73 201.69C125.83 202.13 125.15 202.79 124.71 203.69L123.9 204.03C122.89 204.25 122.1 204.78 121.53 205.63L120.77 206.52C120.68 206.63 120.5 206.84 120.41 206.95H118.97C118.5 207.19 117.54 207.67 117.06 207.91C116.3 207.94 114.78 208.01 114.02 208.05C113.53 208.26 112.56 208.67 112.07 208.88C110.39 209.09 108.7 209.08 107.02 209.02C106.55 209.25 105.6 209.71 105.13 209.94C104.58 209.95 103.49 209.98 102.94 209.99C101.59 209.83 100.29 210.19 99.05 210.66L97.93 210.96C96.58 210.91 95.26 211.18 94.01 211.67C92.29 212.3 90.43 212 88.66 211.9C86.48 211.46 84.38 212.27 82.3 212.78C81.77 212.84 80.71 212.94 80.18 213C77.37 212.88 74.59 212.46 71.79 212.28C71.41 212.27 70.64 212.25 70.25 212.25C67.44 212.32 64.65 212.68 61.86 212.93C56.89 212.94 51.87 213.29 46.94 212.75C46.06 212.15 45.09 211.89 44.04 211.99L42.92 211.93C42.44 211.69 41.48 211.23 41 211L40.08 210.93C39.62 210.67 38.72 210.14 38.27 209.88H36.73C36.58 209.76 36.27 209.52 36.12 209.4C35.51 209.23 34.29 208.88 33.68 208.7C33.55 208.64 33.3 208.52 33.18 208.46L31.53 207.66C31.47 207.63 31.34 207.57 31.28 207.54L29.51 206.71C29.45 206.67 29.32 206.61 29.26 206.58L27.51 205.71C27.45 205.68 27.34 205.62 27.28 205.59L25.56 204.64C25.5 204.6 25.39 204.54 25.33 204.5C24.65 204.05 23.28 203.15 22.6 202.69C22.51 202.65 22.34 202.57 22.25 202.52C21.75 202.35 20.74 202.01 20.23 201.84C17.87 199.43 15.53 196.98 13.06 194.68C12.6 194.4 11.68 193.83 11.22 193.54C10.67 192.47 9.96998 191.48 9.19998 190.57C9.08998 190.24 8.85998 189.59 8.74998 189.26C8.21998 187.54 7.70998 185.81 7.22998 184.08C10.11 184.09 9.89999 187.66 11.36 189.39C16.29 194.6 21 200.45 27.8 203.29C33.21 206.44 39.18 208.38 45.11 210.29C53.62 212.63 62.36 210.16 70.98 210.39C81.7 211.03 92.6 210.69 103.04 208.02C110.19 206.37 118.38 207.1 124.21 201.86C118 199.83 111.41 200.61 105 200.49C96.33 200.34 87.69 201.03 79.05 201.47C72.04 201.74 65.06 200.88 58.06 200.65C53.83 199.89 49.4 198.72 45.95 196.05C44.51 193.92 43.69 191.42 42.97 188.98L44.24 188.03C45.38 190.11 46.02 192.49 47.48 194.4C53.36 198.42 60.69 198.2 67.49 198.74C77.53 200.11 87.6 198.1 97.67 198.38C101.5 191.9 105.09 184.76 104.69 177.02C104.86 174.21 103.81 170.87 106.22 168.74C107.91 169.54 108.03 171.65 108.89 173.12C111.35 165.99 113.63 158.65 113.47 151.02C113.83 147.24 111.72 143.9 109.09 141.42C111.49 139.17 113.17 142.52 114.95 143.87C112.82 136.21 109.8 128.58 104.7 122.39C100.78 117.44 95.11 114.45 90.2 110.65C86.61 107.78 81.91 106.87 78.31 104.04C79.19 101.04 82.32 102.61 83.65 104.3C90.64 107.29 96.28 112.58 102.67 116.6C101.73 109.43 102.45 102.09 104.2 95.1C104.64 94.77 105.53 94.11 105.97 93.78C106.29 95.56 106.46 97.42 107.24 99.08C108.78 97.94 108.14 95.66 108.58 94.04C108.97 86.26 112.47 79.19 115.38 72.12C118.17 64.88 122.33 57.95 122.32 49.95C121.23 49.67 119.03 49.1 117.94 48.82C119.02 48.28 120.11 47.76 121.21 47.25C121.19 45.72 121.19 44.2 121.19 42.67C113.82 43.34 106.26 44.57 99.55 47.76C101.69 47.63 103.82 47.35 105.95 47.1C106.57 47.74 107.2 48.39 107.84 49.04C103.82 49.09 99.9 49.93 96 50.8C94.4 51.51 92.99 50.14 91.58 49.66C92.79 46.91 95.52 45.41 98.09 44.13C104.69 40.97 111.3 37.75 118.25 35.41C117.82 34.3 116.96 32.09 116.52 30.98ZM106.77 42.13C105.53 42.41 104.4 42.98 103.3 43.61C104.31 43.63 105.33 43.59 106.34 43.47C111.44 41.01 117.33 41.53 122.8 40.49C122 39.38 121.19 38.27 120.41 37.16C115.65 38.11 111.23 40.27 106.77 42.13Z" fill="#1F1E1B"/>
<path opacity="0.98" d="M57.27 39.4701C61.25 38.7401 65.87 40.2301 68.38 43.4501C71.03 49.0801 64.23 54.6501 58.99 52.4801C57.16 51.4201 54.83 50.2801 54.45 47.9801C53.45 44.8301 55.24 41.7501 57.27 39.4701ZM58.28 42.8701C60.25 44.7401 61.73 47.0501 61.9 49.8401C63.18 49.6501 64.59 49.6001 65.61 48.6901C67.83 47.6101 66.58 44.1501 64.62 43.4701C62.58 42.6801 60.15 40.6501 58.28 42.8701Z" fill="#1F1E1B"/>
<path opacity="0.98" d="M77.7 46.24C80.13 44.79 83.84 42.6799 85.88 45.8699C85.08 46.8299 84.29 47.79 83.5 48.75C85.17 52.28 87.8599 54.85 90.9599 57.11C90.3399 60.75 87.03 56.6099 85.17 56.1499C82.71 56.5199 83.0599 59.4399 83.0799 61.2599C80.2499 61.6799 80.92 58.61 80.72 56.8C81.31 55.48 82.82 54.88 83.81 53.89C82.39 50.87 79.63 48.88 77.7 46.24Z" fill="#1F1E1B"/>
<path opacity="0.98" d="M105.5 46.9998C109.51 46.1598 117.47 46.5998 121.5 46.9998C120.74 47.5198 119.76 48.5 119 49C115.71 48.51 105.5 50.5 105.5 46.9998Z" fill="#1F1E1B"/>
<path opacity="0.98" d="M123 50C123.18 49.73 122.32 47.78 122.5 47.5C123.32 47.66 128.89 50.0001 129.7 50.1501C130.69 51.0801 131.7 52.0002 132.76 52.8802L130.52 52.6602C130.45 52.6402 130.32 52.6002 130.25 52.5802L128.54 51.7202C128.51 51.7102 128.45 51.6802 128.43 51.6702L128.3 51.6501C127.8 51.5201 126.82 51.2701 126.32 51.1501L123 50Z" fill="#1F1E1B"/>
<path opacity="0.98" d="M32.69 61.3802C34.16 60.8702 37.4 59.05 39 59C39.29 59.19 40.21 59.81 40.5 60C38.52 61.22 34.16 62.9802 31.79 63.0802C31.55 62.9202 31.05 62.5902 30.8 62.4202L32.29 61.6102C32.39 61.5502 32.59 61.4402 32.69 61.3802Z" fill="#1F1E1B"/>
<path opacity="0.98" d="M26.1599 65.4201C26.6499 65.0301 27.6099 64.2401 28.0899 63.8501C28.2799 64.0401 28.6599 64.4301 28.8499 64.6301C28.3799 65.0301 27.4299 65.8201 26.9499 66.2201C26.7499 66.0201 26.3599 65.6201 26.1599 65.4201Z" fill="#1F1E1B"/>
<path opacity="0.98" d="M22.02 68.4501C22.54 68.0601 25.98 65.39 26.5 65C26.68 65.2 26.82 65.8 27 66C26.45 67.05 23.02 69.9601 21.77 69.8101C21.84 69.4701 21.96 68.7901 22.02 68.4501Z" fill="#1F1E1B"/>
<path opacity="0.98" d="M34 74C34.65 74.4 34.35 75.58 35 76C29.58 82.54 20.6999 92.83 16.1399 100.03C13.1199 104.98 8.03999 113.15 6.99999 119C5.94999 119.51 5.59 118.88 5.5 118L6.64989 113.35C6.68989 111.14 8.32989 109.41 9.25989 107.51C9.28989 107.46 9.3499 107.35 9.3799 107.3L10.3299 105.74L10.4899 105.48L10.6099 105.22C11.0199 104.57 11.8299 103.29 12.2399 102.65L12.4099 102.44L12.5599 102.21C13.0099 101.61 13.9199 100.41 14.3799 99.81L14.6599 99.5201L14.7099 99.14C14.7899 98.69 14.9599 97.79 15.0399 97.34C15.8399 96.42 16.6499 95.51 17.4499 94.59C17.4899 94.54 17.5799 94.45 17.6299 94.4C18.0399 93.98 18.8599 93.1301 19.2699 92.7101L19.4799 92.51L19.5999 92.22C20.4399 90.05 22.0099 88.32 23.6199 86.69C23.6599 86.64 23.7399 86.55 23.7699 86.51C24.1499 85.93 24.9099 84.79 25.2899 84.22C26.9499 82.49 32.85 76.13 34 74Z" fill="#1F1E1B"/>
<path opacity="0.98" d="M5.69008 117.35C7.24008 116.68 7.36008 118.74 6.99008 119.72C6.30008 123.26 5.29007 126.74 4.73007 130.31C3.92007 128.34 3.73008 126.23 3.58008 124.13L4.08008 122.93C4.29008 122.47 4.72007 121.53 4.93007 121.07C5.03007 120.21 5.22007 118.49 5.31007 117.63L5.69008 117.35Z" fill="#1F1E1B"/>
<path opacity="0.98" d="M4 123.5C4.84 123.44 5.21 128.03 5 129C4.82 133.15 3.05995 140.88 2.86995 145.03C2.69995 155.91 4.83 168.96 7.5 179.5C7.1 179.68 5.9 179.82 5.5 180C5.34 179.54 4.82995 176.6 4.66995 176.15L4.55995 175.75L4.30995 175.44C4.24995 174.52 4.11995 172.68 4.05995 171.76C4.17995 170.73 3.89995 169.82 3.21995 169.02L3.17994 167.94C3.28994 166.22 2.94995 164.54 2.33995 162.95C1.80995 161.34 1.84996 159.61 1.87996 157.94C1.67996 157.46 1.28995 156.51 1.08995 156.03C1.03995 151.06 0.639958 145.99 1.31996 141.07C1.83996 139.83 2.10994 138.47 1.92994 137.13C1.85994 135.74 1.84995 134.34 1.90995 132.96L4 123.5Z" fill="#1F1E1B"/>
<path opacity="0.98" d="M5.44995 179.77C6.28995 179.14 6.59 178.01 7.5 178.5C7.37 179.74 9.51 183.86 9 185L7.5 184.5C7.26 183.71 5.67995 180.57 5.44995 179.77Z" fill="#1F1E1B"/>
<path opacity="0.75" d="M89.24 12.4301C89.32 12.4101 89.48 12.3601 89.56 12.3301C89.48 12.3601 89.32 12.4101 89.24 12.4301Z" fill="#797977"/>
<path opacity="0.75" d="M111.51 15.1699C111.57 15.2799 111.7 15.4999 111.76 15.6099C111.7 15.4999 111.57 15.2799 111.51 15.1699Z" fill="#797977"/>
<path opacity="0.75" d="M75.2 16.5299C75.34 16.4399 75.62 16.2499 75.75 16.1599C75.62 16.2499 75.34 16.4399 75.2 16.5299Z" fill="#797977"/>
<path opacity="0.75" d="M73.27 17.4401C73.34 17.4101 73.47 17.3401 73.53 17.3101C73.47 17.3401 73.34 17.4101 73.27 17.4401Z" fill="#797977"/>
<path opacity="0.75" d="M112.51 17.3201C112.55 17.4001 112.63 17.5601 112.66 17.6501C112.63 17.5601 112.55 17.4001 112.51 17.3201Z" fill="#797977"/>
<path opacity="0.75" d="M33.26 28.3601C33.36 28.4301 33.55 28.5901 33.64 28.6601C33.55 28.5901 33.36 28.4301 33.26 28.3601Z" fill="#797977"/>
<path opacity="0.75" d="M40.3201 34.45C40.3601 34.52 40.4201 34.65 40.4601 34.72C40.4201 34.65 40.3601 34.52 40.3201 34.45Z" fill="#797977"/>
<path opacity="0.75" d="M41.3101 36.48C41.3401 36.54 41.4001 36.65 41.4201 36.71C41.4001 36.65 41.3401 36.54 41.3101 36.48Z" fill="#797977"/>
<path opacity="0.75" d="M135.11 41.3799C135.28 41.4499 135.62 41.6099 135.79 41.6899L135.41 41.6499L135.11 41.3799Z" fill="#797977"/>
<path opacity="0.75" d="M125.52 43.6899C125.56 43.6199 125.64 43.4599 125.68 43.3899C125.64 43.4599 125.56 43.6199 125.52 43.6899Z" fill="#797977"/>
<path opacity="0.75" d="M42.26 44.6601C42.31 44.5201 42.41 44.2501 42.46 44.1101C42.41 44.2501 42.31 44.5201 42.26 44.6601Z" fill="#797977"/>
<path opacity="0.75" d="M41.1501 49.7601C41.2701 49.6001 41.4902 49.2601 41.6102 49.1001C41.4902 49.2601 41.2701 49.6001 41.1501 49.7601Z" fill="#797977"/>
<path opacity="0.75" d="M128.43 51.6699C128.45 51.6799 128.51 51.7099 128.54 51.7199L128.3 51.6499L128.43 51.6699Z" fill="#797977"/>
<path opacity="0.75" d="M130.25 52.5801C130.32 52.6001 130.45 52.6401 130.52 52.6601C130.45 52.6401 130.32 52.6001 130.25 52.5801Z" fill="#797977"/>
<path opacity="0.75" d="M124.27 57.1699C124.26 57.2999 124.25 57.5599 124.24 57.6899L124.27 57.1699Z" fill="#797977"/>
<path opacity="0.75" d="M32.29 61.6099C32.39 61.5499 32.59 61.4399 32.69 61.3799C32.59 61.4399 32.39 61.5499 32.29 61.6099Z" fill="#797977"/>
<path d="M28.8501 63.275C29.5701 62.485 30 62.5 30.8001 62.4199C31.0501 62.5899 31.5501 62.9199 31.7901 63.0799L32 63C31.46 63.28 30.05 63.72 29.5 64L28.8501 64.6299C28.6601 64.4299 28.2801 64.0399 28.0901 63.8499L28.8501 63.275Z" fill="#22211E"/>
<path opacity="0.75" d="M38.4799 66.3501L38.82 66.3101C38.67 66.3801 38.36 66.5201 38.21 66.5901L38.4799 66.3501Z" fill="#797977"/>
<path opacity="0.75" d="M40.25 67.7801C40.3 67.6701 40.4 67.4401 40.45 67.3301C40.4 67.4401 40.3 67.6701 40.25 67.7801Z" fill="#797977"/>
<path opacity="0.75" d="M118.37 69.85C118.47 69.69 118.68 69.38 118.78 69.22C118.68 69.38 118.47 69.69 118.37 69.85Z" fill="#797977"/>
<path d="M27.3701 73.22C28.6201 72.04 29.6101 70.5 31.2301 69.77L30.5501 71.54L31.9601 71.05L33 70C31.45 71.42 28.8901 74.64 27.5401 76.25C26.1401 75.89 25.0401 73.94 27.2601 73.32C27.2901 73.3 27.3401 73.25 27.3701 73.22Z" fill="#22211E"/>
<path opacity="0.75" d="M117.52 72.7701C117.58 72.6601 117.7 72.4501 117.77 72.3501C117.7 72.4501 117.58 72.6601 117.52 72.7701Z" fill="#797977"/>
<path opacity="0.75" d="M116.49 74.53L116.65 74.27C116.58 74.41 116.45 74.69 116.39 74.82L116.49 74.53Z" fill="#797977"/>
<path opacity="0.75" d="M115.61 76.71C115.64 76.66 115.7 76.55 115.73 76.5C115.7 76.55 115.64 76.66 115.61 76.71Z" fill="#797977"/>
<path opacity="0.75" d="M23.6201 86.69C23.6601 86.64 23.7401 86.55 23.7701 86.51C23.7401 86.55 23.6601 86.64 23.6201 86.69Z" fill="#797977"/>
<path opacity="0.75" d="M19.27 92.71C19.35 92.59 19.52 92.35 19.6 92.22L19.48 92.51L19.27 92.71Z" fill="#797977"/>
<path opacity="0.75" d="M17.45 94.5899C17.49 94.5399 17.58 94.4499 17.63 94.3999C17.58 94.4499 17.49 94.5399 17.45 94.5899Z" fill="#797977"/>
<path opacity="0.75" d="M14.3801 99.8099C14.4601 99.6399 14.6301 99.3099 14.7101 99.1399L14.6601 99.5199L14.3801 99.8099Z" fill="#797977"/>
<path opacity="0.75" d="M12.24 102.65C12.32 102.54 12.48 102.32 12.56 102.21L12.41 102.44L12.24 102.65Z" fill="#797977"/>
<path opacity="0.75" d="M10.3301 105.74C10.4001 105.61 10.5401 105.35 10.6101 105.22L10.4901 105.48L10.3301 105.74Z" fill="#797977"/>
<path opacity="0.75" d="M9.26001 107.51C9.29001 107.46 9.35002 107.35 9.38002 107.3C9.35002 107.35 9.29001 107.46 9.26001 107.51Z" fill="#797977"/>
<path opacity="0.75" d="M108.39 123.27C108.47 123.39 108.64 123.64 108.72 123.77L108.52 123.55L108.39 123.27Z" fill="#797977"/>
<path opacity="0.75" d="M111.39 128.13C111.47 128.29 111.65 128.61 111.74 128.77L111.47 128.5L111.39 128.13Z" fill="#797977"/>
<path opacity="0.75" d="M4.31006 175.44L4.56006 175.75L4.67006 176.15C4.58006 175.97 4.40006 175.61 4.31006 175.44Z" fill="#797977"/>
<path opacity="0.75" d="M105.45 186.91C105.51 186.76 105.63 186.46 105.68 186.31C105.63 186.46 105.51 186.76 105.45 186.91Z" fill="#797977"/>
<path opacity="0.75" d="M104.49 190.85C104.56 190.73 104.68 190.5 104.74 190.39C104.68 190.5 104.56 190.73 104.49 190.85Z" fill="#797977"/>
<path opacity="0.75" d="M103.53 192.72C103.57 192.64 103.65 192.49 103.69 192.41C103.65 192.49 103.57 192.64 103.53 192.72Z" fill="#797977"/>
<path opacity="0.75" d="M102.49 194.52L102.65 194.26C102.58 194.4 102.44 194.67 102.37 194.81L102.49 194.52Z" fill="#797977"/>
<path opacity="0.75" d="M101.54 196.77C101.57 196.69 101.64 196.54 101.67 196.46C101.64 196.54 101.57 196.69 101.54 196.77Z" fill="#797977"/>
<path opacity="0.75" d="M126.43 200.25C126.56 200.31 126.82 200.45 126.96 200.52C126.82 200.45 126.56 200.31 126.43 200.25Z" fill="#797977"/>
<path opacity="0.75" d="M22.25 202.52C22.34 202.57 22.51 202.65 22.6 202.69C22.51 202.65 22.34 202.57 22.25 202.52Z" fill="#797977"/>
<path opacity="0.75" d="M25.3301 204.5C25.3901 204.54 25.5001 204.6 25.5601 204.64C25.5001 204.6 25.3901 204.54 25.3301 204.5Z" fill="#797977"/>
<path opacity="0.75" d="M27.28 205.59C27.34 205.62 27.45 205.68 27.51 205.71C27.45 205.68 27.34 205.62 27.28 205.59Z" fill="#797977"/>
<path opacity="0.75" d="M29.26 206.58C29.32 206.61 29.45 206.67 29.51 206.71C29.45 206.67 29.32 206.61 29.26 206.58Z" fill="#797977"/>
<path opacity="0.75" d="M120.41 206.95C120.5 206.84 120.68 206.63 120.77 206.52C120.68 206.63 120.5 206.84 120.41 206.95Z" fill="#797977"/>
<path opacity="0.75" d="M31.28 207.54C31.34 207.57 31.47 207.63 31.53 207.66C31.47 207.63 31.34 207.57 31.28 207.54Z" fill="#797977"/>
<path opacity="0.75" d="M33.1802 208.46C33.3002 208.52 33.5502 208.64 33.6802 208.7C33.5502 208.64 33.3002 208.52 33.1802 208.46Z" fill="#797977"/>
<path opacity="0.75" d="M36.1201 209.4C36.2701 209.52 36.5801 209.76 36.7301 209.88C36.5801 209.76 36.2701 209.52 36.1201 209.4Z" fill="#797977"/>
<path d="M106.77 42.1299C111.23 40.2699 115.65 38.1099 120.41 37.1599C121.19 38.2699 122 39.3799 122.8 40.4899C117.33 41.5299 111.44 41.0099 106.34 43.4699C105.33 43.5899 104.31 43.6299 103.3 43.6099C104.4 42.9799 105.53 42.4099 106.77 42.1299Z" fill="#F7F7F7"/>
<path d="M123.96 39.0398C126.48 40.9398 129.8 39.1998 132.42 40.6798C129.7 40.0398 125.85 41.6298 123.96 39.0398Z" fill="#F7F7F7"/>
<path d="M27.2598 73.32C27.2898 73.3 27.3398 73.25 27.3698 73.22C27.3398 73.25 27.2898 73.3 27.2598 73.32Z" fill="#F7F7F7"/>
<path d="M4.04988 121.2L4.92987 121.07C4.71987 121.53 4.28988 122.47 4.07988 122.93L3.61987 122.15L4.04988 121.2Z" fill="#F7F7F7"/>
<path d="M61.8599 212.93C64.6499 212.68 67.4399 212.32 70.2499 212.25C67.5999 213.38 64.6599 212.97 61.8599 212.93Z" fill="#F7F7F7"/>
<path d="M71.7898 212.28C74.5898 212.46 77.3698 212.88 80.1798 213C77.3898 212.83 74.4298 213.44 71.7898 212.28Z" fill="#F7F7F7"/>
</svg>
