<svg width="260" height="109" viewBox="0 0 260 109" fill="none" xmlns="http://www.w3.org/2000/svg">
<g clip-path="url(#clip0)">
<path d="M197.78 54.0053C197.602 54.007 197.432 54.0784 197.306 54.2039C197.181 54.3295 197.109 54.4993 197.107 54.6769V62.1692C197.107 62.3474 197.178 62.5182 197.305 62.6442C197.431 62.7701 197.602 62.8409 197.78 62.8409C197.959 62.8409 198.13 62.7701 198.256 62.6442C198.382 62.5182 198.453 62.3474 198.453 62.1692V54.6769C198.456 54.5879 198.441 54.4992 198.408 54.4163C198.376 54.3335 198.326 54.2582 198.263 54.1952C198.2 54.1323 198.125 54.0829 198.041 54.0502C197.958 54.0175 197.87 54.0022 197.78 54.0053Z" fill="white"/>
<path d="M213.079 56.9023C212.949 56.9022 212.82 56.9276 212.699 56.9773C212.579 57.0269 212.47 57.0998 212.378 57.1917C212.286 57.2835 212.213 57.3927 212.163 57.5127C212.113 57.6328 212.088 57.7615 212.088 57.8915V64.6362C212.088 64.8987 212.192 65.1505 212.378 65.3361C212.564 65.5217 212.817 65.626 213.08 65.626C213.343 65.626 213.595 65.5217 213.781 65.3361C213.967 65.1505 214.071 64.8987 214.071 64.6362V57.886C214.07 57.6243 213.965 57.3737 213.779 57.1893C213.593 57.0048 213.341 56.9016 213.079 56.9023V56.9023Z" fill="white"/>
<path d="M194.524 54.0053C194.346 54.007 194.175 54.0784 194.05 54.2039C193.924 54.3295 193.852 54.4993 193.851 54.6769V62.1692C193.851 62.3474 193.921 62.5182 194.048 62.6442C194.174 62.7701 194.345 62.8409 194.524 62.8409C194.702 62.8409 194.873 62.7701 194.999 62.6442C195.125 62.5182 195.196 62.3474 195.196 62.1692V54.6769C195.199 54.5879 195.184 54.4992 195.151 54.4163C195.119 54.3335 195.069 54.2582 195.006 54.1952C194.943 54.1323 194.868 54.0829 194.785 54.0502C194.702 54.0175 194.613 54.0022 194.524 54.0053V54.0053Z" fill="white"/>
<path d="M209.537 56.9023C209.407 56.9022 209.278 56.9276 209.157 56.9773C209.037 57.0269 208.928 57.0998 208.836 57.1917C208.744 57.2835 208.671 57.3927 208.621 57.5127C208.571 57.6328 208.546 57.7615 208.546 57.8915V64.6362C208.546 64.8987 208.65 65.1505 208.836 65.3361C209.022 65.5217 209.275 65.626 209.538 65.626C209.801 65.626 210.053 65.5217 210.239 65.3361C210.425 65.1505 210.529 64.8987 210.529 64.6362V57.886C210.522 57.6262 210.415 57.3789 210.231 57.1958C210.046 57.0126 209.797 56.9075 209.537 56.9023V56.9023Z" fill="white"/>
<path d="M191.3 54.0054C191.122 54.0071 190.952 54.0785 190.826 54.204C190.7 54.3296 190.629 54.4994 190.627 54.677V62.1693C190.627 62.3475 190.698 62.5183 190.824 62.6443C190.95 62.7702 191.121 62.841 191.3 62.841C191.478 62.841 191.65 62.7702 191.776 62.6443C191.902 62.5183 191.973 62.3475 191.973 62.1693V54.677C191.971 54.4994 191.9 54.3296 191.774 54.204C191.648 54.0785 191.478 54.0071 191.3 54.0054V54.0054Z" fill="white"/>
<path d="M184.785 53.8276C184.289 53.8287 183.812 54.0138 183.445 54.3468C183.079 54.6798 182.849 55.137 182.802 55.6295H186.804C186.743 55.1362 186.505 54.6818 186.133 54.3505C185.762 54.0192 185.283 53.8334 184.785 53.8276Z" fill="white"/>
<path d="M182.767 55.8428V61.5333H186.804V55.8428H182.767Z" fill="white"/>
<path d="M201.039 54.0054C200.861 54.0071 200.691 54.0785 200.565 54.204C200.439 54.3296 200.368 54.4994 200.366 54.677V62.1693C200.366 62.3475 200.437 62.5183 200.563 62.6443C200.69 62.7702 200.861 62.841 201.039 62.841C201.218 62.841 201.389 62.7702 201.515 62.6443C201.641 62.5183 201.712 62.3475 201.712 62.1693V54.677C201.71 54.4994 201.639 54.3296 201.513 54.204C201.387 54.0785 201.217 54.0071 201.039 54.0054V54.0054Z" fill="white"/>
<path d="M239.392 55.8428V61.5333H243.429V55.8428H239.392Z" fill="white"/>
<path d="M234.894 54.0054C234.716 54.0071 234.546 54.0785 234.42 54.204C234.294 54.3296 234.222 54.4994 234.221 54.677V62.1693C234.221 62.3475 234.292 62.5183 234.418 62.6443C234.544 62.7702 234.715 62.841 234.894 62.841C235.072 62.841 235.243 62.7702 235.369 62.6443C235.496 62.5183 235.567 62.3475 235.567 62.1693V54.677C235.565 54.4994 235.493 54.3296 235.368 54.204C235.242 54.0785 235.072 54.0071 234.894 54.0054V54.0054Z" fill="white"/>
<path d="M241.41 53.8276C240.915 53.8287 240.437 54.0138 240.07 54.3468C239.704 54.6798 239.474 55.137 239.427 55.6295H243.429C243.368 55.1362 243.13 54.6818 242.758 54.3505C242.387 54.0192 241.908 53.8334 241.41 53.8276V53.8276Z" fill="white"/>
<path d="M216.656 56.9023C216.526 56.9022 216.397 56.9276 216.277 56.9773C216.156 57.0269 216.047 57.0998 215.955 57.1917C215.863 57.2835 215.79 57.3927 215.74 57.5127C215.69 57.6328 215.665 57.7615 215.665 57.8915V64.6362C215.665 64.8987 215.77 65.1505 215.956 65.3361C216.142 65.5217 216.394 65.626 216.657 65.626C216.92 65.626 217.172 65.5217 217.358 65.3361C217.544 65.1505 217.648 64.8987 217.648 64.6362V57.886C217.636 57.6282 217.527 57.3844 217.343 57.2025C217.16 57.0205 216.915 56.9135 216.656 56.9023V56.9023Z" fill="white"/>
<path d="M225.155 54.0054C224.977 54.0071 224.807 54.0785 224.681 54.204C224.556 54.3296 224.484 54.4994 224.482 54.677V62.1693C224.482 62.3475 224.553 62.5183 224.679 62.6443C224.806 62.7702 224.977 62.841 225.155 62.841C225.334 62.841 225.505 62.7702 225.631 62.6443C225.757 62.5183 225.828 62.3475 225.828 62.1693V54.677C225.827 54.4994 225.755 54.3296 225.629 54.204C225.503 54.0785 225.333 54.0071 225.155 54.0054V54.0054Z" fill="white"/>
<path d="M231.636 54.0053C231.458 54.007 231.288 54.0784 231.162 54.2039C231.036 54.3295 230.965 54.4993 230.963 54.6769V62.1692C230.963 62.3474 231.034 62.5182 231.16 62.6442C231.286 62.7701 231.457 62.8409 231.636 62.8409C231.814 62.8409 231.985 62.7701 232.112 62.6442C232.238 62.5182 232.309 62.3474 232.309 62.1692V54.6769C232.312 54.5879 232.296 54.4992 232.264 54.4163C232.231 54.3335 232.182 54.2582 232.118 54.1952C232.055 54.1323 231.98 54.0829 231.897 54.0502C231.814 54.0175 231.725 54.0022 231.636 54.0053V54.0053Z" fill="white"/>
<path d="M228.377 54.0053C228.199 54.007 228.029 54.0784 227.903 54.2039C227.777 54.3295 227.706 54.4993 227.704 54.6769V62.1692C227.704 62.3474 227.775 62.5182 227.901 62.6442C228.027 62.7701 228.199 62.8409 228.377 62.8409C228.556 62.8409 228.727 62.7701 228.853 62.6442C228.979 62.5182 229.05 62.3474 229.05 62.1692V54.6769C229.053 54.5879 229.038 54.4992 229.005 54.4163C228.972 54.3335 228.923 54.2582 228.86 54.1952C228.797 54.1323 228.721 54.0829 228.638 54.0502C228.555 54.0175 228.466 54.0022 228.377 54.0053V54.0053Z" fill="white"/>
<path d="M247.784 53.616V52.3786H247.217V50.2226H246.827V50.7531H246.438V51.0706H245.622V48.2077H246.574C246.574 47.1114 244.343 46.2281 241.58 46.2281V42.2703C241.58 42.2329 241.566 42.197 241.539 42.1705C241.512 42.1441 241.477 42.1292 241.439 42.1292C241.402 42.1292 241.366 42.1441 241.339 42.1705C241.313 42.197 241.298 42.2329 241.298 42.2703V42.9067C240.974 43.0839 240.594 43.1323 240.236 43.0423C239.781 42.9576 239.318 42.9222 238.855 42.9365L239.137 45.1631C239.137 45.1631 239.42 45.3394 240.128 44.9161C240.295 44.8052 240.49 44.7431 240.69 44.7369C240.891 44.7306 241.089 44.7805 241.262 44.8808V46.2648C238.641 46.3353 236.553 47.1833 236.553 48.2444H237.505V51.1073H235.132V48.1372C235.132 48.1091 235.121 48.0822 235.101 48.0624C235.081 48.0425 235.055 48.0314 235.026 48.0314C234.998 48.0314 234.971 48.0425 234.951 48.0624C234.931 48.0822 234.92 48.1091 234.92 48.1372V48.5972C234.681 48.7213 234.405 48.7587 234.141 48.703C233.815 48.6395 233.482 48.6158 233.15 48.6324L233.362 50.2606C233.362 50.2606 233.574 50.3963 234.106 50.0842C234.234 50.0094 234.378 49.967 234.526 49.9608C234.675 49.9547 234.822 49.9849 234.956 50.049V51.1086H232.193V52.4166H230.21V51.7803H229.749V51.1792H229.288V52.4519H225.393V51.8155H224.862V51.2145H224.401V51.8155H223.869V52.4519H222.102V50.5076H221.712V49.3054H221.145V47.8563C221.676 47.7858 222.065 47.5036 222.065 47.22C222.065 46.9025 221.675 46.6542 221.145 46.5836V45.9473C221.148 45.8943 221.14 45.8413 221.122 45.7914C221.104 45.7415 221.076 45.6958 221.039 45.6572C221.003 45.6186 220.959 45.5878 220.91 45.5668C220.861 45.5458 220.808 45.5349 220.755 45.5349C220.702 45.5349 220.649 45.5458 220.601 45.5668C220.552 45.5878 220.508 45.6186 220.471 45.6572C220.435 45.6958 220.407 45.7415 220.389 45.7914C220.37 45.8413 220.363 45.8943 220.366 45.9473V46.4778C219.834 46.5484 219.445 46.8306 219.445 47.1142C219.445 47.4316 219.834 47.6799 220.366 47.7505V49.1996H219.764C219.481 47.662 218.667 46.2721 217.463 45.2715C216.26 44.2709 214.743 43.723 213.177 43.723C211.611 43.723 210.094 44.2709 208.89 45.2715C207.687 46.2721 206.873 47.662 206.59 49.1996H205.997V47.7505C206.529 47.6799 206.918 47.3977 206.918 47.1142C206.918 46.7967 206.529 46.5484 205.997 46.4778V45.9473C206.001 45.8943 205.993 45.8413 205.975 45.7914C205.957 45.7415 205.928 45.6958 205.892 45.6572C205.855 45.6186 205.811 45.5878 205.763 45.5668C205.714 45.5458 205.661 45.5349 205.608 45.5349C205.555 45.5349 205.502 45.5458 205.453 45.5668C205.405 45.5878 205.361 45.6186 205.324 45.6572C205.288 45.6958 205.259 45.7415 205.241 45.7914C205.223 45.8413 205.215 45.8943 205.218 45.9473V46.4778C204.687 46.5484 204.298 46.8306 204.298 47.1142C204.298 47.4316 204.688 47.6799 205.218 47.7505V49.1996H204.652V50.4017H204.263V52.346H202.495V51.7097H201.858V51.1086H201.397V51.7097H200.865V52.346H196.97V51.1086H196.51V51.7097H196.049V52.346H194.065V51.0381H191.303V49.9784C191.434 49.9045 191.583 49.8687 191.733 49.8749C191.883 49.8811 192.028 49.9292 192.153 50.0137C192.684 50.3312 192.896 50.1901 192.896 50.1901L193.108 48.5619C192.776 48.5452 192.443 48.5689 192.117 48.6324C191.853 48.6882 191.578 48.6508 191.338 48.5266V48.0666C191.338 48.0386 191.327 48.0117 191.307 47.9918C191.287 47.972 191.26 47.9608 191.232 47.9608C191.204 47.9608 191.177 47.972 191.157 47.9918C191.137 48.0117 191.126 48.0386 191.126 48.0666V51.0354H188.679V48.1725H189.631C189.631 47.1128 187.541 46.2281 184.921 46.1929V44.8143C185.095 44.714 185.293 44.6642 185.493 44.6704C185.694 44.6766 185.888 44.7387 186.055 44.8496C186.764 45.2743 187.046 45.0966 187.046 45.0966L187.329 42.87C186.866 42.8557 186.403 42.8911 185.948 42.9759C185.589 43.0476 185.216 42.9999 184.886 42.8402V42.1943C184.886 42.1569 184.871 42.121 184.845 42.0945C184.818 42.0681 184.782 42.0532 184.745 42.0532C184.707 42.0532 184.671 42.0681 184.645 42.0945C184.618 42.121 184.603 42.1569 184.603 42.1943V46.1522C181.841 46.1522 179.61 47.0355 179.61 48.1318H180.562V50.9947H179.746V50.6772H179.356V50.1466H178.966V52.3026H178.399V53.54H177.312V54.4233H177.95L178.8 55.8724V69.7974H247.43V55.8778L248.28 54.4288H248.917V53.5455H247.784V53.616ZM184.784 53.8277C185.279 53.8287 185.757 54.0134 186.123 54.3459C186.49 54.6783 186.719 55.1349 186.768 55.6268H182.765C182.816 55.1287 183.052 54.6676 183.427 54.3346C183.802 54.0015 184.288 53.8207 184.79 53.8277H184.784ZM186.803 61.5331H182.765V55.8426H186.803V61.5331ZM191.969 62.1694C191.969 62.3475 191.898 62.5184 191.772 62.6443C191.646 62.7703 191.475 62.841 191.296 62.841C191.118 62.841 190.946 62.7703 190.82 62.6443C190.694 62.5184 190.623 62.3475 190.623 62.1694V54.6771C190.623 54.4989 190.694 54.3281 190.82 54.2021C190.946 54.0762 191.118 54.0054 191.296 54.0054C191.475 54.0054 191.646 54.0762 191.772 54.2021C191.898 54.3281 191.969 54.4989 191.969 54.6771V62.1694ZM195.191 62.1694C195.191 62.3475 195.12 62.5184 194.994 62.6443C194.868 62.7703 194.697 62.841 194.518 62.841C194.34 62.841 194.168 62.7703 194.042 62.6443C193.916 62.5184 193.845 62.3475 193.845 62.1694V54.6771C193.845 54.4989 193.916 54.3281 194.042 54.2021C194.168 54.0762 194.34 54.0054 194.518 54.0054C194.697 54.0054 194.868 54.0762 194.994 54.2021C195.12 54.3281 195.191 54.4989 195.191 54.6771V62.1694ZM198.454 62.1694C198.454 62.3475 198.383 62.5184 198.257 62.6443C198.13 62.7703 197.959 62.841 197.781 62.841C197.602 62.841 197.431 62.7703 197.305 62.6443C197.179 62.5184 197.108 62.3475 197.108 62.1694V54.6771C197.108 54.4989 197.179 54.3281 197.305 54.2021C197.431 54.0762 197.602 54.0054 197.781 54.0054C197.959 54.0054 198.13 54.0762 198.257 54.2021C198.383 54.3281 198.454 54.4989 198.454 54.6771V62.1694ZM201.716 62.1694C201.716 62.3475 201.646 62.5184 201.519 62.6443C201.393 62.7703 201.222 62.841 201.044 62.841C200.865 62.841 200.694 62.7703 200.568 62.6443C200.441 62.5184 200.371 62.3475 200.371 62.1694V54.6771C200.371 54.4989 200.441 54.3281 200.568 54.2021C200.694 54.0762 200.865 54.0054 201.044 54.0054C201.222 54.0054 201.393 54.0762 201.519 54.2021C201.646 54.3281 201.716 54.4989 201.716 54.6771V62.1694ZM210.534 64.6429C210.534 64.9054 210.43 65.1572 210.244 65.3428C210.058 65.5284 209.805 65.6327 209.542 65.6327C209.279 65.6327 209.027 65.5284 208.841 65.3428C208.655 65.1572 208.551 64.9054 208.551 64.6429V57.8927C208.551 57.6302 208.655 57.3784 208.841 57.1928C209.027 57.0072 209.279 56.9029 209.542 56.9029C209.805 56.9029 210.058 57.0072 210.244 57.1928C210.43 57.3784 210.534 57.6302 210.534 57.8927V64.6429ZM214.069 64.6429C214.069 64.9054 213.964 65.1572 213.778 65.3428C213.592 65.5284 213.34 65.6327 213.077 65.6327C212.814 65.6327 212.562 65.5284 212.376 65.3428C212.19 65.1572 212.085 64.9054 212.085 64.6429V57.8927C212.085 57.6302 212.19 57.3784 212.376 57.1928C212.562 57.0072 212.814 56.9029 213.077 56.9029C213.34 56.9029 213.592 57.0072 213.778 57.1928C213.964 57.3784 214.069 57.6302 214.069 57.8927V64.6429ZM217.603 64.6429C217.603 64.9054 217.499 65.1572 217.313 65.3428C217.127 65.5284 216.875 65.6327 216.612 65.6327C216.349 65.6327 216.096 65.5284 215.91 65.3428C215.724 65.1572 215.62 64.9054 215.62 64.6429V57.8927C215.62 57.6302 215.724 57.3784 215.91 57.1928C216.096 57.0072 216.349 56.9029 216.612 56.9029C216.875 56.9029 217.127 57.0072 217.313 57.1928C217.499 57.3784 217.603 57.6302 217.603 57.8927V64.6429ZM225.819 62.1694C225.819 62.3475 225.748 62.5184 225.622 62.6443C225.495 62.7703 225.324 62.841 225.146 62.841C224.967 62.841 224.796 62.7703 224.67 62.6443C224.544 62.5184 224.473 62.3475 224.473 62.1694V54.6771C224.473 54.4989 224.544 54.3281 224.67 54.2021C224.796 54.0762 224.967 54.0054 225.146 54.0054C225.324 54.0054 225.495 54.0762 225.622 54.2021C225.748 54.3281 225.819 54.4989 225.819 54.6771V62.1694ZM229.041 62.1694C229.041 62.3475 228.97 62.5184 228.844 62.6443C228.717 62.7703 228.546 62.841 228.368 62.841C228.189 62.841 228.018 62.7703 227.892 62.6443C227.766 62.5184 227.695 62.3475 227.695 62.1694V54.6771C227.695 54.4989 227.766 54.3281 227.892 54.2021C228.018 54.0762 228.189 54.0054 228.368 54.0054C228.546 54.0054 228.717 54.0762 228.844 54.2021C228.97 54.3281 229.041 54.4989 229.041 54.6771V62.1694ZM232.303 62.1694C232.303 62.3475 232.232 62.5184 232.106 62.6443C231.98 62.7703 231.809 62.841 231.63 62.841C231.452 62.841 231.281 62.7703 231.155 62.6443C231.028 62.5184 230.957 62.3475 230.957 62.1694V54.6771C230.957 54.4989 231.028 54.3281 231.155 54.2021C231.281 54.0762 231.452 54.0054 231.63 54.0054C231.809 54.0054 231.98 54.0762 232.106 54.2021C232.232 54.3281 232.303 54.4989 232.303 54.6771V62.1694ZM235.566 62.1694C235.566 62.3475 235.495 62.5184 235.369 62.6443C235.243 62.7703 235.072 62.841 234.893 62.841C234.715 62.841 234.543 62.7703 234.417 62.6443C234.291 62.5184 234.22 62.3475 234.22 62.1694V54.6771C234.22 54.4989 234.291 54.3281 234.417 54.2021C234.543 54.0762 234.715 54.0054 234.893 54.0054C235.072 54.0054 235.243 54.0762 235.369 54.2021C235.495 54.3281 235.566 54.4989 235.566 54.6771V62.1694ZM241.412 53.8277C241.907 53.8294 242.383 54.0144 242.749 54.3468C243.115 54.6792 243.344 55.1353 243.393 55.6268H239.392C239.453 55.1343 239.692 54.6807 240.063 54.35C240.433 54.0192 240.912 53.8337 241.409 53.8277H241.412ZM243.431 61.5331H239.393V55.8426H243.431V61.5331Z" fill="white"/>
<path d="M127.983 51.5307L130.214 48.0667V46.794H125.568V44.2161H125.604L126.489 42.2718H127.835V41.4577H108.575V39.7915H104.999V39.7209C104.893 39.5093 104.433 39.6504 104.221 39.5446C104.008 39.4387 104.15 38.5948 104.356 38.3777C104.563 38.1606 104.463 37.6708 105.029 37.6355C105.632 37.6002 105.596 38.5188 105.667 38.8729C105.738 39.1904 105.384 39.4387 105.531 39.6504C105.678 39.8621 105.992 39.474 106.098 38.7318C106.162 38.2649 106.062 37.7901 105.815 37.3886C105.745 37.1064 106.098 36.47 105.992 36.0101C105.886 35.5854 105.674 35.409 105.674 35.196C105.674 34.9829 106.099 35.2312 106.347 34.9843C106.559 34.7374 106.276 34.4185 106.211 34.2421C106.146 34.0657 106.494 33.7469 106.564 33.428C106.635 33.1092 106.174 32.7211 105.613 32.6139C105.081 32.5081 104.055 35.0562 103.878 35.5474C103.666 36.0426 103.028 35.6179 102.638 36.0073C102.426 36.2543 102.461 36.5026 102.532 36.8906L101.58 37.1376C101.256 36.4835 100.764 35.9267 100.154 35.5233C99.545 35.1199 98.8396 34.8844 98.1097 34.8405V33.7442C98.3607 33.6902 98.5856 33.5521 98.7469 33.3527C98.9083 33.1533 98.9963 32.9048 98.9963 32.6485C98.9963 32.3923 98.9083 32.1437 98.7469 31.9444C98.5856 31.745 98.3607 31.6068 98.1097 31.5529V31.0672C98.2215 31.0368 98.3285 30.9911 98.4278 30.9315L100.233 29.1296C100.343 29.0166 100.404 28.865 100.402 28.7076C100.401 28.5503 100.338 28.3997 100.226 28.2884C100.115 28.1772 99.964 28.1141 99.8063 28.1128C99.6486 28.1115 99.4968 28.1722 99.3835 28.2816L97.8609 29.8012L96.3383 28.2816C96.225 28.1722 96.0731 28.1115 95.9154 28.1128C95.7578 28.1141 95.6069 28.1772 95.4954 28.2884C95.3839 28.3997 95.3207 28.5503 95.3195 28.7076C95.3182 28.865 95.3789 29.0166 95.4886 29.1296L97.294 30.9315C97.3817 31.0111 97.4938 31.0589 97.6121 31.0672V31.5624C97.3611 31.6163 97.1362 31.7545 96.9748 31.9539C96.8135 32.1532 96.7255 32.4018 96.7255 32.658C96.7255 32.9143 96.8135 33.1628 96.9748 33.3622C97.1362 33.5616 97.3611 33.6997 97.6121 33.7537V34.85C96.8821 34.8939 96.1767 35.1294 95.5673 35.5328C94.9578 35.9362 94.4659 36.493 94.1414 37.1471L93.1897 36.9001C93.2958 36.5107 93.3257 36.2638 93.0837 36.0168C92.6935 35.6274 92.0573 36.0521 91.8438 35.5569C91.6304 35.0616 90.6393 32.5176 90.1091 32.6234C89.5789 32.7293 89.1181 33.1539 89.1575 33.4375C89.2282 33.755 89.5477 34.0739 89.511 34.2516C89.4403 34.428 89.1208 34.7469 89.375 34.9938C89.5871 35.2407 90.048 35.0291 90.048 35.2055C90.048 35.3818 89.8359 35.5582 89.7299 36.0195C89.6238 36.4442 89.9773 37.1159 89.9066 37.3981C89.6981 37.8141 89.6008 38.2767 89.6238 38.7413C89.7299 39.4835 90.0493 39.8729 90.1907 39.6599C90.3321 39.4469 89.9786 39.2352 90.0548 38.8824C90.1255 38.5649 90.0901 37.645 90.6924 37.645C91.2946 37.6803 91.1532 38.1755 91.3653 38.3872C91.5774 38.5989 91.7188 39.4469 91.5013 39.5541C91.2837 39.6612 90.8283 39.5188 90.7223 39.7304V39.7915H87.1455V41.4522H67.8518V42.2663H69.1977L70.0827 44.2107H70.118V46.7886H65.4795V48.0681L67.7104 51.532H68.8089V54.11H67.4983V55.0598H68.8782L69.5158 56.688H69.3037V64.1098H68.454V69.8003H127.31V64.1098H126.46V56.688H126.248L126.886 55.0598H128.267V54.11H126.956V51.532L127.983 51.5307ZM81.4887 66.3743C81.4866 66.4956 81.4374 66.6114 81.3514 66.6972C81.2654 66.783 81.1494 66.8322 81.0278 66.8342H76.4913C76.3697 66.8322 76.2537 66.783 76.1677 66.6972C76.0817 66.6114 76.0325 66.4956 76.0304 66.3743V53.262C76.0328 53.1409 76.0822 53.0255 76.1682 52.9399C76.2541 52.8544 76.3699 52.8055 76.4913 52.8034H81.0238C81.1453 52.8055 81.2613 52.8546 81.3473 52.9404C81.4333 53.0262 81.4825 53.142 81.4846 53.2633L81.4887 66.3743ZM90.1295 66.3743C90.1274 66.4956 90.0782 66.6114 89.9922 66.6972C89.9063 66.783 89.7902 66.8322 89.6687 66.8342H85.1362C85.0146 66.8322 84.8986 66.783 84.8126 66.6972C84.7266 66.6114 84.6774 66.4956 84.6753 66.3743V53.262C84.6774 53.1407 84.7266 53.0249 84.8126 52.9391C84.8986 52.8533 85.0146 52.8041 85.1362 52.802H89.6687C89.7902 52.8041 89.9063 52.8533 89.9922 52.9391C90.0782 53.0249 90.1274 53.1407 90.1295 53.262V66.3743ZM92.9273 37.8173C92.9627 37.5704 93.0334 37.3574 93.0633 37.181L93.9483 37.4279C93.738 37.9194 93.6297 38.4484 93.6302 38.9828C93.6362 39.2667 93.6598 39.5499 93.7009 39.8308H92.3971C92.6692 39.1885 92.8468 38.5103 92.9246 37.8173H92.9273ZM102.383 66.9754C102.38 67.0967 102.331 67.2125 102.245 67.2983C102.159 67.3841 102.043 67.4332 101.922 67.4353H93.7417C93.6201 67.4332 93.5041 67.3841 93.4181 67.2983C93.3321 67.2125 93.2829 67.0967 93.2808 66.9754V52.6962C93.2829 52.5749 93.3321 52.4591 93.4181 52.3733C93.5041 52.2875 93.6201 52.2383 93.7417 52.2362H101.913C102.035 52.2383 102.151 52.2875 102.237 52.3733C102.323 52.4591 102.372 52.5749 102.374 52.6962L102.383 66.9754ZM101.954 39.8322C102.013 39.5535 102.037 39.2687 102.025 38.9842C102.033 38.449 101.924 37.9186 101.707 37.4293L102.592 37.1823C102.627 37.3587 102.698 37.5718 102.728 37.8187C102.801 38.5097 102.968 39.1876 103.224 39.8336L101.954 39.8322ZM110.984 66.3756C110.982 66.497 110.933 66.6128 110.847 66.6986C110.761 66.7844 110.645 66.8335 110.523 66.8356H105.992C105.87 66.8335 105.754 66.7844 105.668 66.6986C105.582 66.6128 105.533 66.497 105.531 66.3756V53.262C105.533 53.1407 105.582 53.0249 105.668 52.9391C105.754 52.8533 105.87 52.8041 105.992 52.802H110.524C110.646 52.8041 110.762 52.8533 110.848 52.9391C110.934 53.0249 110.983 53.1407 110.985 53.262L110.984 66.3756ZM119.66 66.3756C119.658 66.497 119.609 66.6128 119.523 66.6986C119.437 66.7844 119.321 66.8335 119.199 66.8356H114.667C114.545 66.8335 114.429 66.7844 114.343 66.6986C114.257 66.6128 114.208 66.497 114.206 66.3756V53.262C114.208 53.1407 114.257 53.0249 114.343 52.9391C114.429 52.8533 114.545 52.8041 114.667 52.802H119.199C119.321 52.8041 119.437 52.8533 119.523 52.9391C119.609 53.0249 119.658 53.1407 119.66 53.262V66.3756Z" fill="white"/>
<path d="M151.463 29.1228C151.465 28.1192 151.156 27.1393 150.58 26.3171C150.003 25.4948 149.186 24.8702 148.241 24.5286V22.7254H148.843V21.9805H147.599V20.4283H147.387C147.38 20.2665 147.326 20.1101 147.232 19.9783C147.137 19.8465 147.007 19.745 146.855 19.6861V0.247003C146.856 0.214604 146.85 0.182389 146.838 0.152277C146.826 0.122165 146.808 0.0947722 146.785 0.0717303C146.763 0.0486883 146.735 0.0304684 146.705 0.0181559C146.675 0.00584338 146.643 -0.00030996 146.611 6.24035e-05H146.475C146.442 -0.000679517 146.41 0.00520077 146.379 0.0173481C146.349 0.0294954 146.321 0.0476576 146.298 0.0707377C146.275 0.0938178 146.257 0.121337 146.245 0.151632C146.232 0.181928 146.227 0.214372 146.227 0.247003V19.6861C146.078 19.7483 145.95 19.8507 145.856 19.9818C145.762 20.1129 145.706 20.2675 145.696 20.4283H145.484V21.9805H144.244V22.7227H144.846V24.5246C143.899 24.8655 143.08 25.4896 142.502 26.3119C141.923 27.1342 141.612 28.1146 141.612 29.1194C141.612 30.1243 141.923 31.1047 142.502 31.927C143.08 32.7492 143.899 33.3734 144.846 33.7143V34.6641H143.642V35.8309H144.668L143.96 70.1136H149.094L148.386 35.8309H149.413V34.6641H148.208V33.7143C149.161 33.3803 149.986 32.7589 150.569 31.9363C151.152 31.1137 151.464 30.1305 151.463 29.1228V29.1228Z" fill="white"/>
<path d="M0.425781 69.415H260.002V79.0281H0.425781V69.415Z" fill="white"/>
<path d="M0.425781 81.3604H260.002V86.1676H0.425781V81.3604Z" fill="white"/>
<path d="M64.3457 70.6156V17.4595C64.3457 17.4595 56.9093 17.3889 55.244 28.1336V38.7018H54.533V30.7129L51.1683 29.3696L48.017 30.4659V51.2443H46.0729V45.2743H42.7789V44.0368H38.4585V54.004H36.1923V40.6095H32.5448V39.5132H28.6145V40.6801H24.4709V51.7422H22.346V44.0735H19.8989V41.4222H16.677V40.0084H14.094V42.1997H9.70421V44.7085H6.87106V46.7586H0.425781V70.6468H64.3457V70.6156Z" fill="white"/>
<path d="M62.3975 56.019H71.5345V71.1462H62.3975V56.019Z" fill="white"/>
<path d="M128.55 72.6603V51.5673H131.277V48.916H132.87V51.319H142.115V55.4898H147.852V58.9565H151.711V55.3514H155.89V58.639H157.342V57.4368H159.002V55.5644H168.669V57.4382H170.121V59.9063H171.963V54.6052H171.012V52.2728H176.076V51.0707H178.236V52.1303H179.37V72.6603H128.55Z" fill="white"/>
<path d="M245.765 70.3684V61.2452H249.412V55.6605H251.36V52.6973H253.768V54.5357H257.133V55.9536H260.001V70.3739L245.765 70.3684Z" fill="white"/>
<path d="M7.15357 90.2666C10.8717 90.2666 13.3868 91.751 13.3868 94.8961C13.424 95.8658 13.1073 96.8159 12.4955 97.5701C11.8836 98.3243 11.0182 98.8311 10.0601 98.9964C11.1989 99.1449 12.2433 99.7056 12.9952 100.572C13.747 101.438 14.1539 102.55 14.1386 103.696C14.1032 107.973 9.95953 108.68 7.19707 108.68H0V90.2666H7.15357ZM7.04753 91.751H1.59331V98.36H7.82651C9.91603 98.36 11.8288 97.4767 11.8288 95.1037C11.8275 92.6343 9.95137 91.751 7.04753 91.751V91.751ZM7.68512 99.8444H1.59331V107.196H6.94149C9.45516 107.196 12.5724 106.949 12.5724 103.555C12.5711 100.269 9.52586 99.8444 7.68512 99.8444V99.8444Z" fill="white"/>
<path d="M32.2618 90.2667V91.7511H21.5668V98.6437H31.4828V100.128H21.5668V107.162H32.4426V108.646H20.0088V90.2314H32.2618V90.2667Z" fill="white"/>
<path d="M38.3525 108.68V90.2666H45.4354C48.6574 90.2666 52.1988 91.6451 52.1988 95.7454C52.1988 99.2732 49.5777 100.766 46.8873 101.117L53.4387 108.68H51.4905L45.0452 101.218H39.9105V108.68H38.3525ZM39.9458 99.7386H45.5768C47.9844 99.7386 50.6408 98.82 50.6408 95.7441C50.6408 92.6682 48.0198 91.7862 45.5768 91.7862H39.9458V99.7386Z" fill="white"/>
<path d="M60.0951 90.2666V107.196H70.7547V108.68H58.5371V90.2666H60.0951Z" fill="white"/>
<path d="M77.2699 90.2666V108.68H75.7119V90.2666H77.2699Z" fill="white"/>
<path d="M84.3525 108.68V90.2666H85.7691L97.8807 106.03V90.2666H99.4427V108.68H98.0262L85.9146 92.8812V108.68H84.3525Z" fill="white"/>
<path d="M123.626 89.9845C125.423 89.971 127.196 90.3958 128.792 91.2219V92.8121C127.311 91.908 125.604 91.4422 123.869 91.4689C122.775 91.4172 121.682 91.5936 120.66 91.9868C119.638 92.3801 118.709 92.9817 117.932 93.7531C117.156 94.5245 116.55 95.4489 116.151 96.4673C115.753 97.4857 115.571 98.5758 115.618 99.6681C115.583 104.969 119.903 107.515 123.94 107.515C125.712 107.565 127.46 107.098 128.97 106.171V107.726C127.32 108.585 125.483 109.022 123.623 108.999C122.37 109.05 121.12 108.846 119.949 108.398C118.778 107.951 117.711 107.269 116.812 106.396C115.914 105.522 115.204 104.475 114.726 103.318C114.247 102.162 114.01 100.92 114.029 99.6681C113.977 98.3916 114.189 97.1181 114.652 95.9268C115.114 94.7356 115.817 93.652 116.718 92.7437C117.618 91.8354 118.696 91.1217 119.884 90.647C121.073 90.1723 122.346 89.9468 123.626 89.9845V89.9845Z" fill="white"/>
<path d="M136.091 90.2666V108.68H134.568V90.2666H136.091Z" fill="white"/>
<path d="M156.068 90.2666V91.751H149.304V108.68H147.746V91.751H140.978V90.2666H156.068Z" fill="white"/>
<path d="M166.122 108.68V101.505L158.862 90.2666H160.597L166.901 100.093L173.205 90.2666H174.939L167.68 101.506V108.681L166.122 108.68Z" fill="white"/>
<path d="M202.743 90.2666V108.68H201.185V100.199H189.221V108.681H187.652V90.2666H189.21V98.6789H201.174V90.2666H202.743Z" fill="white"/>
<path d="M207.554 108.68L215.769 90.2666H217.536L225.752 108.68H224.052L221.857 103.732H211.446L209.215 108.68H207.554ZM212.051 102.247H221.223L216.873 92.4212C216.812 92.2239 216.729 92.0341 216.626 91.8555C216.555 92.0319 216.49 92.2082 216.378 92.4212L212.051 102.247Z" fill="white"/>
<path d="M232.13 90.2666V107.196H242.79V108.68H230.572V90.2666H232.13Z" fill="white"/>
<path d="M249.34 90.2666V107.196H260V108.68H247.782V90.2666H249.34Z" fill="white"/>
</g>
<defs>
<clipPath id="clip0">
<rect width="260" height="109" fill="white"/>
</clipPath>
</defs>
</svg>
