<svg width="150" height="63" viewBox="0 0 150 63" fill="none" xmlns="http://www.w3.org/2000/svg">
<g clip-path="url(#clip0)">
<path d="M150 46.9092H0.245117V49.6791H150V46.9092Z" fill="url(#paint0_linear)"/>
<path d="M148.345 32.2641V31.4289H146.404V30.3698H145.015V32.0806H143.912V35.2985H142.747V32.2438L143.237 31.4087H143.605V30.9019H142.973V30.1925H142.645V28.9438H142.4V29.2479H142.176V29.4313H141.706V27.7833H142.258C142.258 27.1519 140.971 26.6431 139.377 26.6431V24.3607C139.377 24.3391 139.368 24.3183 139.353 24.303C139.338 24.2877 139.317 24.2791 139.295 24.2791C139.273 24.2791 139.253 24.2877 139.237 24.303C139.222 24.3183 139.213 24.3391 139.213 24.3607V24.7296C139.027 24.8321 138.81 24.8611 138.603 24.8107C138.341 24.7619 138.073 24.7415 137.806 24.7499L137.97 26.033C137.97 26.033 138.134 26.1343 138.542 25.8901C138.639 25.8263 138.751 25.7906 138.866 25.7871C138.982 25.7835 139.096 25.8121 139.196 25.8698V26.6644C137.684 26.705 136.479 27.1945 136.479 27.8046H137.031V29.4546H135.653V27.7418C135.653 27.7255 135.647 27.7099 135.635 27.6984C135.624 27.6869 135.608 27.6805 135.592 27.6805C135.575 27.6805 135.56 27.6869 135.548 27.6984C135.537 27.7099 135.53 27.7255 135.53 27.7418V28.0063C135.392 28.0778 135.233 28.0993 135.081 28.0671C134.892 28.0305 134.7 28.0169 134.509 28.0266L134.632 28.9631C134.632 28.9631 134.755 29.0441 135.061 28.8617C135.134 28.8186 135.218 28.7942 135.303 28.7907C135.388 28.7872 135.473 28.8046 135.55 28.8414V29.4496H133.957V30.2026H132.813V29.8357H132.548V29.4931H132.282V30.2259H130.035V29.859H129.73V29.5124H129.464V29.859H129.159V30.2259H128.143V29.107H127.918V28.4148H127.591V27.5796C127.896 27.5391 128.122 27.3769 128.122 27.2127C128.122 27.0293 127.898 26.8864 127.591 26.8458V26.4992C127.591 26.4398 127.567 26.3828 127.525 26.3408C127.483 26.2988 127.426 26.2752 127.366 26.2752C127.306 26.2752 127.249 26.2988 127.207 26.3408C127.165 26.3828 127.141 26.4398 127.141 26.4992V26.8033C126.836 26.8438 126.61 27.006 126.61 27.1702C126.61 27.3536 126.834 27.4965 127.141 27.5371V28.3783H126.794C126.631 27.4917 126.162 26.6901 125.467 26.113C124.773 25.5359 123.898 25.2198 122.994 25.2198C122.09 25.2198 121.214 25.5359 120.52 26.113C119.826 26.6901 119.356 27.4917 119.194 28.3783H118.846V27.5431C119.151 27.5026 119.378 27.3404 119.378 27.1762C119.378 26.9928 119.153 26.8499 118.846 26.8093V26.5053C118.846 26.4759 118.84 26.4468 118.829 26.4196C118.818 26.3924 118.801 26.3677 118.78 26.3469C118.759 26.3261 118.735 26.3096 118.707 26.2984C118.68 26.2871 118.651 26.2813 118.621 26.2813C118.592 26.2813 118.563 26.2871 118.535 26.2984C118.508 26.3096 118.483 26.3261 118.463 26.3469C118.442 26.3677 118.425 26.3924 118.414 26.4196C118.403 26.4468 118.397 26.4759 118.397 26.5053V26.8093C118.092 26.8499 117.865 27.0121 117.865 27.1762C117.865 27.3597 118.09 27.5026 118.397 27.5431V28.3783H118.066V29.0705H117.842V30.1904H116.825V29.8235H116.457V29.4769H116.192V29.8235H115.887V30.1904H113.634V29.481H113.369V29.8276H113.103V30.1945H111.96V29.4404H110.366V28.8323C110.441 28.7898 110.527 28.7692 110.614 28.7727C110.7 28.7763 110.784 28.804 110.856 28.8526C111.161 29.036 111.285 28.9539 111.285 28.9539L111.408 28.0175C111.216 28.0078 111.024 28.0214 110.835 28.058C110.683 28.0902 110.524 28.0687 110.386 27.9972V27.7327C110.386 27.7164 110.38 27.7008 110.368 27.6893C110.357 27.6778 110.341 27.6713 110.325 27.6713C110.308 27.6713 110.293 27.6778 110.281 27.6893C110.27 27.7008 110.263 27.7164 110.263 27.7327V29.4435H108.853V27.7833H109.405C109.405 27.1752 108.199 26.6634 106.688 26.6431V25.8445C106.788 25.7868 106.902 25.7581 107.018 25.7617C107.133 25.7653 107.245 25.801 107.342 25.8648C107.748 26.109 107.914 26.0077 107.914 26.0077L108.078 24.7246C107.81 24.7162 107.543 24.7366 107.281 24.7854C107.074 24.8252 106.86 24.7967 106.671 24.7043V24.3374C106.671 24.3158 106.662 24.295 106.647 24.2797C106.631 24.2644 106.61 24.2558 106.589 24.2558C106.567 24.2558 106.546 24.2644 106.531 24.2797C106.516 24.295 106.507 24.3158 106.507 24.3374V26.6188C104.913 26.6188 103.626 27.1256 103.626 27.759H104.178V29.4121H103.708V29.2296H103.484V28.9256H103.259V30.0252H102.852V29.4171H101.598V30.1012H98.6793V31.4492H99.2313V34.505H98.1679V33.0789H97.3282V32.0198H91.737V33.0789H90.7561V33.7712H89.9184V31.8769H87.503V33.9526H85.8694L85.5837 20.6512H86.1764V19.9793H85.482V19.4289C86.0267 19.2308 86.4971 18.8705 86.8294 18.3969C87.1618 17.9232 87.34 17.3592 87.34 16.7811C87.34 16.2031 87.1618 15.6391 86.8294 15.1654C86.4971 14.6918 86.0267 14.3315 85.482 14.1333V13.0975H85.8297V12.6688H85.1181V11.7729H84.9951C84.9914 11.6798 84.9605 11.5898 84.9064 11.5138C84.8522 11.4379 84.7771 11.3793 84.6901 11.3452V0.142793C84.6908 0.123335 84.6873 0.103965 84.6799 0.0859383C84.6725 0.0679118 84.6614 0.0516324 84.6473 0.0381566C84.6333 0.0246808 84.6165 0.0143099 84.5981 0.00771698C84.5797 0.00112403 84.5602 -0.00154357 84.5407 -0.000112688H84.4594C84.4404 -0.000673617 84.4215 0.00263923 84.4039 0.00962237C84.3862 0.0166055 84.3702 0.0271115 84.3568 0.0404949C84.3433 0.0538784 84.3328 0.0698568 84.3258 0.0874485C84.3188 0.10504 84.3155 0.123874 84.316 0.142793V11.3452C84.2304 11.3812 84.1566 11.4404 84.1027 11.5159C84.0488 11.5914 84.0171 11.6804 84.0111 11.7729H83.8881V12.6688H83.1765V13.0965H83.5241V14.1354C82.9795 14.3335 82.5091 14.6938 82.1767 15.1674C81.8444 15.6411 81.6661 16.2051 81.6661 16.7832C81.6661 17.3612 81.8444 17.9253 82.1767 18.3989C82.5091 18.8725 82.9795 19.2328 83.5241 19.431V19.9813H82.8298V20.6533H83.4225L83.1978 31.958H81.9464V29.555H76.6144V28.1695H75.6995V29.6958H74.1625V39.984H73.4265V36.9283H72.9365V32.6512H72.8135L73.1815 31.7148H73.9785V31.1644H73.2221V29.6776H73.8555L75.1424 27.681V26.9472H72.4668V25.4614H72.4871L72.9954 24.3414H73.7721V23.8732H62.6629V22.9154H60.5993V22.8749C60.5383 22.7523 60.272 22.8343 60.15 22.7735C60.028 22.7127 60.1093 22.2232 60.2313 22.1016C60.3533 21.98 60.2923 21.6962 60.6196 21.6739C60.9673 21.6536 60.947 22.1806 60.9876 22.3833C61.0283 22.5668 60.824 22.7097 60.9063 22.8313C60.9886 22.9529 61.1716 22.73 61.2336 22.3012C61.2705 22.032 61.2127 21.7584 61.07 21.5269C61.0293 21.3637 61.2336 20.9968 61.1716 20.7323C61.1106 20.4881 60.9876 20.3857 60.9876 20.2641C60.9876 20.1425 61.2326 20.2843 61.376 20.1414C61.499 19.9985 61.3353 19.8151 61.2946 19.7137C61.254 19.6124 61.4583 19.4289 61.4979 19.2455C61.5376 19.0621 61.2733 18.8401 60.9459 18.7773C60.641 18.7164 60.0473 20.183 59.9446 20.4678C59.8216 20.7526 59.4546 20.5083 59.233 20.7323C59.11 20.8752 59.1314 21.0171 59.172 21.2391L58.6149 21.385C58.4277 21.0081 58.1438 20.6871 57.7921 20.4547C57.4405 20.2223 57.0334 20.0866 56.6123 20.0614V19.43C56.7573 19.3991 56.8873 19.3196 56.9806 19.2047C57.0739 19.0898 57.1248 18.9464 57.1248 18.7985C57.1248 18.6507 57.0739 18.5073 56.9806 18.3924C56.8873 18.2775 56.7573 18.1979 56.6123 18.1671V17.8823C56.6771 17.8639 56.739 17.8367 56.7963 17.8012L57.8383 16.7624C57.8722 16.7307 57.8993 16.6925 57.9181 16.6502C57.9369 16.6078 57.947 16.5622 57.9477 16.5158C57.9485 16.4695 57.9399 16.4235 57.9224 16.3806C57.905 16.3377 57.8791 16.2987 57.8462 16.2659C57.8134 16.2332 57.7743 16.2073 57.7312 16.19C57.6881 16.1726 57.642 16.164 57.5956 16.1647C57.5491 16.1655 57.5033 16.1755 57.4608 16.1943C57.4183 16.213 57.3801 16.2401 57.3483 16.2739L56.47 17.1495L55.5916 16.2739C55.526 16.2125 55.4389 16.1789 55.3489 16.1804C55.2589 16.1818 55.173 16.2181 55.1094 16.2816C55.0457 16.345 55.0093 16.4307 55.0079 16.5204C55.0064 16.6102 55.0401 16.6969 55.1016 16.7624L56.1436 17.8012C56.194 17.8482 56.2589 17.8768 56.3276 17.8823V18.1671C56.1826 18.1979 56.0526 18.2775 55.9593 18.3924C55.866 18.5073 55.8151 18.6507 55.8151 18.7985C55.8151 18.9464 55.866 19.0898 55.9593 19.2047C56.0526 19.3196 56.1826 19.3991 56.3276 19.43V20.0675C55.9074 20.0924 55.5013 20.2274 55.15 20.4587C54.7988 20.69 54.5149 21.0095 54.327 21.385L53.775 21.2421C53.836 21.0181 53.8563 20.8752 53.714 20.7354C53.4894 20.5114 53.1214 20.7556 53.0024 20.4708C52.8835 20.186 52.3081 18.7195 52.0011 18.7803C51.6941 18.8411 51.4288 19.0843 51.4491 19.2485C51.4897 19.432 51.6737 19.6154 51.6524 19.7168C51.6117 19.8181 51.4277 20.0016 51.5711 20.1445C51.6941 20.2874 51.9594 20.1648 51.9594 20.2671C51.9594 20.3695 51.8364 20.4698 51.7754 20.7354C51.7144 20.9796 51.9187 21.3668 51.8771 21.53C51.7566 21.7697 51.7002 22.0364 51.7134 22.3043C51.7744 22.732 51.9584 22.956 52.0407 22.8343C52.1231 22.7127 51.9177 22.5901 51.9594 22.3864C52.0001 22.2029 51.9797 21.6769 52.3274 21.6769C52.6751 21.6972 52.5927 21.981 52.7157 22.1046C52.8387 22.2283 52.9191 22.7127 52.7971 22.7766C52.6751 22.8404 52.4087 22.7563 52.3477 22.8779V22.9185H50.2841V23.8762H39.1648V24.3445H39.9414L40.4497 25.4644H40.4701V26.9512H37.7965V27.685L39.0834 29.6816H39.7168V31.1685H38.9604V31.7188H39.7574L39.9821 32.2691H37.1835V10.062C37.1835 10.062 32.8935 10.0215 31.9328 16.2131V22.3033H31.5262V17.7212L29.5856 16.9468L27.7669 17.5783V29.555H26.6416V26.109H24.7446V25.3996H22.2489V31.1431H20.9416V23.4242H18.7763V22.7928H16.5103V23.4648H14.1173V29.8398H12.8913V25.4198H11.4813V23.8925H9.62304V23.0816H8.13172V24.3445H5.5974V25.7908H3.96376V26.9725H0.245117V45.5857H150V32.2843H148.345V32.2641ZM65.8875 30.7164C65.8888 30.6467 65.9172 30.5802 65.9667 30.5308C66.0162 30.4815 66.0829 30.4532 66.1529 30.4519H68.7675C68.8375 30.4532 68.9042 30.4815 68.9537 30.5308C69.0031 30.5802 69.0315 30.6467 69.0328 30.7164V38.2732C69.0315 38.343 69.0031 38.4095 68.9537 38.4588C68.9042 38.5081 68.8375 38.5364 68.7675 38.5377H66.1539C66.0839 38.5364 66.0172 38.5081 65.9677 38.4588C65.9182 38.4095 65.8899 38.343 65.8885 38.2732L65.8875 30.7164ZM60.9063 30.7164C60.9076 30.6467 60.936 30.5802 60.9855 30.5308C61.0349 30.4815 61.1017 30.4532 61.1716 30.4519H63.7812C63.8511 30.4532 63.9179 30.4815 63.9674 30.5308C64.0168 30.5802 64.0452 30.6467 64.0465 30.7164V38.2732C64.0452 38.343 64.0168 38.4095 63.9674 38.4588C63.9179 38.5081 63.8511 38.5364 63.7812 38.5377H61.1686C61.0986 38.5364 61.0319 38.5081 60.9824 38.4588C60.9329 38.4095 60.9046 38.343 60.9032 38.2732L60.9063 30.7164ZM59.2066 21.4479C59.2269 21.5492 59.2676 21.6718 59.2879 21.8148C59.3297 22.2131 59.4258 22.6038 59.5736 22.9762H58.8172C58.851 22.8157 58.8647 22.6516 58.8579 22.4877C58.8621 22.1793 58.7994 21.8737 58.6739 21.5918L59.2066 21.4479ZM58.8 30.1246C58.8699 30.1258 58.9366 30.1541 58.9861 30.2035C59.0356 30.2528 59.064 30.3193 59.0653 30.3891V38.6148C59.064 38.6845 59.0356 38.751 58.9861 38.8004C58.9366 38.8497 58.8699 38.878 58.8 38.8793H54.079C54.0099 38.8767 53.9444 38.8479 53.896 38.7987C53.8476 38.7495 53.82 38.6837 53.8187 38.6148V30.3901C53.82 30.3203 53.8484 30.2538 53.8979 30.2045C53.9474 30.1552 54.0141 30.1269 54.0841 30.1256L58.8 30.1246ZM53.6154 21.8137C53.6357 21.6708 53.6764 21.5492 53.6967 21.4468L54.205 21.5898C54.0835 21.8729 54.0209 22.1777 54.021 22.4857C54.0244 22.6492 54.038 22.8124 54.0617 22.9742H53.3054C53.4621 22.6043 53.5644 22.2138 53.6093 21.8148L53.6154 21.8137ZM48.8548 30.7154C48.8561 30.6457 48.8845 30.5791 48.9339 30.5298C48.9834 30.4805 49.0501 30.4522 49.1201 30.4509H51.7347C51.8047 30.4522 51.8714 30.4805 51.9209 30.5298C51.9704 30.5791 51.9988 30.6457 52.0001 30.7154V38.2722C51.9988 38.3419 51.9704 38.4085 51.9209 38.4578C51.8714 38.5071 51.8047 38.5354 51.7347 38.5367H49.115C49.0451 38.5354 48.9783 38.5071 48.9288 38.4578C48.8794 38.4085 48.851 38.3419 48.8497 38.2722L48.8548 30.7154ZM43.8736 30.7154C43.8749 30.6457 43.9032 30.5791 43.9527 30.5298C44.0022 30.4805 44.0689 30.4522 44.1389 30.4509H46.7535C46.8235 30.4522 46.8902 30.4805 46.9397 30.5298C46.9892 30.5791 47.0175 30.6457 47.0188 30.7154V38.2722C47.0175 38.3419 46.9892 38.4085 46.9397 38.4578C46.8902 38.5071 46.8235 38.5354 46.7535 38.5367H44.1297C44.0598 38.5354 43.993 38.5071 43.9436 38.4578C43.8941 38.4085 43.8657 38.3419 43.8644 38.2722L43.8736 30.7154Z" fill="url(#paint1_linear)"/>
<path d="M5.82295 57.0741C6.37585 56.9792 6.87536 56.6873 7.22858 56.2527C7.58181 55.8182 7.76471 55.2705 7.74327 54.7115C7.74327 52.8984 6.29261 52.043 4.14763 52.043H0V62.6555H4.16797C5.76196 62.6555 8.15193 62.2278 8.17226 59.7832C8.1777 59.1241 7.94223 58.4856 7.50987 57.9871C7.07751 57.4885 6.47785 57.1639 5.82295 57.0741V57.0741ZM0.914919 52.8984H4.08562C5.76094 52.8984 6.8436 53.4052 6.8436 54.8332C6.84461 56.1984 5.74061 56.7051 4.53597 56.7051H0.914919V52.8984ZM4.00023 61.8001H0.914919V57.5636H4.45362C5.51595 57.5636 7.27259 57.8079 7.27259 59.6818C7.25328 61.6369 5.45495 61.8001 4.0043 61.8001H4.00023Z" fill="url(#paint2_linear)"/>
<path d="M12.4416 57.746H18.1619V56.8703H12.4416V52.8984H18.6112V52.043H11.543V62.6555H18.7139V61.8001H12.4416V57.746Z" fill="url(#paint3_linear)"/>
<path d="M30.1142 55.2001C30.1142 52.8376 28.0709 52.043 26.2116 52.043H22.126V62.6555H23.0246V58.3572H25.989L29.7076 62.6555H30.8309L27.0513 58.2974C28.5823 58.0927 30.1142 57.2372 30.1142 55.2001ZM23.045 57.5018V52.8984H26.298C27.6877 52.8984 29.2196 53.4051 29.2196 55.1798C29.2196 56.9545 27.708 57.4815 26.298 57.4815H23.045V57.5018Z" fill="url(#paint4_linear)"/>
<path d="M34.6701 52.043H33.7715V62.6555H40.8204V61.8001H34.6711L34.6701 52.043Z" fill="url(#paint5_linear)"/>
<path d="M44.5793 52.043H43.6807V62.6555H44.5793V52.043Z" fill="url(#paint6_linear)"/>
<path d="M56.4703 60.2109V61.1231L49.4793 52.043H48.666V62.6555H49.5647V53.5511L56.5516 62.6555H57.3649V52.043H56.4662L56.4703 60.2109Z" fill="url(#paint7_linear)"/>
<path d="M66.7013 57.4613C66.6724 56.8313 66.776 56.2022 67.0053 55.6145C67.2346 55.0267 67.5846 54.4932 68.0329 54.0483C68.4811 53.6033 69.0177 53.2566 69.6082 53.0305C70.1987 52.8044 70.8301 52.7038 71.4619 52.7353C72.4635 52.7172 73.4493 52.9859 74.3022 53.5096V52.5974C73.3818 52.1198 72.3572 51.8761 71.3196 51.888C70.5823 51.8667 69.8485 51.9968 69.1638 52.2701C68.479 52.5434 67.8579 52.9541 67.3391 53.4767C66.8202 53.9994 66.4146 54.6227 66.1475 55.3082C65.8804 55.9936 65.7575 56.7265 65.7864 57.4613C65.7754 58.1826 65.9121 58.8986 66.1883 59.5654C66.4645 60.2322 66.8743 60.8357 67.3925 61.3392C67.9108 61.8426 68.5267 62.2353 69.2024 62.4932C69.8782 62.7511 70.5997 62.8687 71.3226 62.839C72.3964 62.8549 73.457 62.6026 74.4079 62.1052V61.2042C73.537 61.7384 72.5287 62.0075 71.5066 61.9785C70.8879 62.0204 70.2672 61.9344 69.6834 61.7259C69.0996 61.5173 68.5653 61.1907 68.1141 60.7666C67.6629 60.3424 67.3045 59.8299 67.0614 59.2611C66.8182 58.6923 66.6956 58.0795 66.7013 57.4613V57.4613Z" fill="url(#paint8_linear)"/>
<path d="M78.5344 52.043H77.6357V62.6555H78.5344V52.043Z" fill="url(#paint9_linear)"/>
<path d="M81.3535 52.8984H85.2348V62.6555H86.1335V52.8984H90.0361V52.043H81.3535V52.8984Z" fill="url(#paint10_linear)"/>
<path d="M96.288 57.7055L92.6517 52.043H91.6504L95.8387 58.5203V62.6555H96.7373V58.5203L100.926 52.043H99.9243L96.288 57.7055Z" fill="url(#paint11_linear)"/>
<path d="M116.065 56.8906H109.159V52.043H108.261V62.6555H109.159V57.7673H116.065V62.6555H116.964V52.043H116.065V56.8906Z" fill="url(#paint12_linear)"/>
<path d="M124.483 52.043L119.742 62.6555H120.723L122.01 59.8035H128.017L129.284 62.6555H130.265L125.523 52.043H124.483ZM122.338 58.9481L124.851 53.2855C124.886 53.1717 124.934 53.0622 124.994 52.9592C125.035 53.0605 125.075 53.1619 125.137 53.2855L127.65 58.9481H122.338Z" fill="url(#paint13_linear)"/>
<path d="M133.921 52.043H133.022V62.6555H140.092V61.8001H133.922L133.921 52.043Z" fill="url(#paint14_linear)"/>
<path d="M143.85 52.043H142.951V62.6555H150V61.8001H143.851L143.85 52.043Z" fill="url(#paint15_linear)"/>
</g>
<defs>
<linearGradient id="paint0_linear" x1="0.245117" y1="48.2886" x2="150" y2="48.2886" gradientUnits="userSpaceOnUse">
<stop stop-color="#3575B8"/>
<stop offset="0.2" stop-color="#3575B8"/>
<stop offset="0.267" stop-color="#436EAF"/>
<stop offset="0.393" stop-color="#685D96"/>
<stop offset="0.566" stop-color="#A4416E"/>
<stop offset="0.777" stop-color="#F51A38"/>
<stop offset="0.8" stop-color="#FF1632"/>
<stop offset="1" stop-color="#FF1632"/>
</linearGradient>
<linearGradient id="paint1_linear" x1="0.245117" y1="22.7926" x2="150" y2="22.7926" gradientUnits="userSpaceOnUse">
<stop stop-color="#3575B8"/>
<stop offset="0.2" stop-color="#3575B8"/>
<stop offset="0.267" stop-color="#436EAF"/>
<stop offset="0.393" stop-color="#685D96"/>
<stop offset="0.566" stop-color="#A4416E"/>
<stop offset="0.777" stop-color="#F51A38"/>
<stop offset="0.8" stop-color="#FF1632"/>
<stop offset="1" stop-color="#FF1632"/>
</linearGradient>
<linearGradient id="paint2_linear" x1="0" y1="57.3492" x2="8.16418" y2="57.3492" gradientUnits="userSpaceOnUse">
<stop stop-color="#3575B8"/>
<stop offset="0.2" stop-color="#3575B8"/>
<stop offset="0.267" stop-color="#436EAF"/>
<stop offset="0.393" stop-color="#685D96"/>
<stop offset="0.566" stop-color="#A4416E"/>
<stop offset="0.777" stop-color="#F51A38"/>
<stop offset="0.8" stop-color="#FF1632"/>
<stop offset="1" stop-color="#FF1632"/>
</linearGradient>
<linearGradient id="paint3_linear" x1="11.543" y1="57.3492" x2="18.7211" y2="57.3492" gradientUnits="userSpaceOnUse">
<stop stop-color="#3575B8"/>
<stop offset="0.2" stop-color="#3575B8"/>
<stop offset="0.267" stop-color="#436EAF"/>
<stop offset="0.393" stop-color="#685D96"/>
<stop offset="0.566" stop-color="#A4416E"/>
<stop offset="0.777" stop-color="#F51A38"/>
<stop offset="0.8" stop-color="#FF1632"/>
<stop offset="1" stop-color="#FF1632"/>
</linearGradient>
<linearGradient id="paint4_linear" x1="22.126" y1="57.3492" x2="30.8309" y2="57.3492" gradientUnits="userSpaceOnUse">
<stop stop-color="#3575B8"/>
<stop offset="0.2" stop-color="#3575B8"/>
<stop offset="0.267" stop-color="#436EAF"/>
<stop offset="0.393" stop-color="#685D96"/>
<stop offset="0.566" stop-color="#A4416E"/>
<stop offset="0.777" stop-color="#F51A38"/>
<stop offset="0.8" stop-color="#FF1632"/>
<stop offset="1" stop-color="#FF1632"/>
</linearGradient>
<linearGradient id="paint5_linear" x1="33.7644" y1="57.3492" x2="40.8204" y2="57.3492" gradientUnits="userSpaceOnUse">
<stop stop-color="#3575B8"/>
<stop offset="0.2" stop-color="#3575B8"/>
<stop offset="0.267" stop-color="#436EAF"/>
<stop offset="0.393" stop-color="#685D96"/>
<stop offset="0.566" stop-color="#A4416E"/>
<stop offset="0.777" stop-color="#F51A38"/>
<stop offset="0.8" stop-color="#FF1632"/>
<stop offset="1" stop-color="#FF1632"/>
</linearGradient>
<linearGradient id="paint6_linear" x1="43.6807" y1="57.3492" x2="44.5775" y2="57.3492" gradientUnits="userSpaceOnUse">
<stop stop-color="#3575B8"/>
<stop offset="0.2" stop-color="#3575B8"/>
<stop offset="0.267" stop-color="#436EAF"/>
<stop offset="0.393" stop-color="#685D96"/>
<stop offset="0.566" stop-color="#A4416E"/>
<stop offset="0.777" stop-color="#F51A38"/>
<stop offset="0.8" stop-color="#FF1632"/>
<stop offset="1" stop-color="#FF1632"/>
</linearGradient>
<linearGradient id="paint7_linear" x1="48.666" y1="57.3492" x2="57.3649" y2="57.3492" gradientUnits="userSpaceOnUse">
<stop stop-color="#3575B8"/>
<stop offset="0.2" stop-color="#3575B8"/>
<stop offset="0.267" stop-color="#436EAF"/>
<stop offset="0.393" stop-color="#685D96"/>
<stop offset="0.566" stop-color="#A4416E"/>
<stop offset="0.777" stop-color="#F51A38"/>
<stop offset="0.8" stop-color="#FF1632"/>
<stop offset="1" stop-color="#FF1632"/>
</linearGradient>
<linearGradient id="paint8_linear" x1="65.7909" y1="57.3537" x2="74.4165" y2="57.3537" gradientUnits="userSpaceOnUse">
<stop stop-color="#3575B8"/>
<stop offset="0.2" stop-color="#3575B8"/>
<stop offset="0.267" stop-color="#436EAF"/>
<stop offset="0.393" stop-color="#685D96"/>
<stop offset="0.566" stop-color="#A4416E"/>
<stop offset="0.777" stop-color="#F51A38"/>
<stop offset="0.8" stop-color="#FF1632"/>
<stop offset="1" stop-color="#FF1632"/>
</linearGradient>
<linearGradient id="paint9_linear" x1="77.6259" y1="57.3492" x2="78.5227" y2="57.3492" gradientUnits="userSpaceOnUse">
<stop stop-color="#3575B8"/>
<stop offset="0.2" stop-color="#3575B8"/>
<stop offset="0.267" stop-color="#436EAF"/>
<stop offset="0.393" stop-color="#685D96"/>
<stop offset="0.566" stop-color="#A4416E"/>
<stop offset="0.777" stop-color="#F51A38"/>
<stop offset="0.8" stop-color="#FF1632"/>
<stop offset="1" stop-color="#FF1632"/>
</linearGradient>
<linearGradient id="paint10_linear" x1="81.3535" y1="57.3492" x2="90.0361" y2="57.3492" gradientUnits="userSpaceOnUse">
<stop stop-color="#3575B8"/>
<stop offset="0.2" stop-color="#3575B8"/>
<stop offset="0.267" stop-color="#436EAF"/>
<stop offset="0.393" stop-color="#685D96"/>
<stop offset="0.566" stop-color="#A4416E"/>
<stop offset="0.777" stop-color="#F51A38"/>
<stop offset="0.8" stop-color="#FF1632"/>
<stop offset="1" stop-color="#FF1632"/>
</linearGradient>
<linearGradient id="paint11_linear" x1="91.6504" y1="57.3492" x2="100.926" y2="57.3492" gradientUnits="userSpaceOnUse">
<stop stop-color="#3575B8"/>
<stop offset="0.2" stop-color="#3575B8"/>
<stop offset="0.267" stop-color="#436EAF"/>
<stop offset="0.393" stop-color="#685D96"/>
<stop offset="0.566" stop-color="#A4416E"/>
<stop offset="0.777" stop-color="#F51A38"/>
<stop offset="0.8" stop-color="#FF1632"/>
<stop offset="1" stop-color="#FF1632"/>
</linearGradient>
<linearGradient id="paint12_linear" x1="108.261" y1="57.3492" x2="116.955" y2="57.3492" gradientUnits="userSpaceOnUse">
<stop stop-color="#3575B8"/>
<stop offset="0.2" stop-color="#3575B8"/>
<stop offset="0.267" stop-color="#436EAF"/>
<stop offset="0.393" stop-color="#685D96"/>
<stop offset="0.566" stop-color="#A4416E"/>
<stop offset="0.777" stop-color="#F51A38"/>
<stop offset="0.8" stop-color="#FF1632"/>
<stop offset="1" stop-color="#FF1632"/>
</linearGradient>
<linearGradient id="paint13_linear" x1="119.742" y1="57.3492" x2="130.233" y2="57.3492" gradientUnits="userSpaceOnUse">
<stop stop-color="#3575B8"/>
<stop offset="0.2" stop-color="#3575B8"/>
<stop offset="0.267" stop-color="#436EAF"/>
<stop offset="0.393" stop-color="#685D96"/>
<stop offset="0.566" stop-color="#A4416E"/>
<stop offset="0.777" stop-color="#F51A38"/>
<stop offset="0.8" stop-color="#FF1632"/>
<stop offset="1" stop-color="#FF1632"/>
</linearGradient>
<linearGradient id="paint14_linear" x1="133.03" y1="57.3492" x2="140.092" y2="57.3492" gradientUnits="userSpaceOnUse">
<stop stop-color="#3575B8"/>
<stop offset="0.2" stop-color="#3575B8"/>
<stop offset="0.267" stop-color="#436EAF"/>
<stop offset="0.393" stop-color="#685D96"/>
<stop offset="0.566" stop-color="#A4416E"/>
<stop offset="0.777" stop-color="#F51A38"/>
<stop offset="0.8" stop-color="#FF1632"/>
<stop offset="1" stop-color="#FF1632"/>
</linearGradient>
<linearGradient id="paint15_linear" x1="142.951" y1="57.3492" x2="150.007" y2="57.3492" gradientUnits="userSpaceOnUse">
<stop stop-color="#3575B8"/>
<stop offset="0.2" stop-color="#3575B8"/>
<stop offset="0.267" stop-color="#436EAF"/>
<stop offset="0.393" stop-color="#685D96"/>
<stop offset="0.566" stop-color="#A4416E"/>
<stop offset="0.777" stop-color="#F51A38"/>
<stop offset="0.8" stop-color="#FF1632"/>
<stop offset="1" stop-color="#FF1632"/>
</linearGradient>
<clipPath id="clip0">
<rect width="150" height="62.8378" fill="white"/>
</clipPath>
</defs>
</svg>
