<?xml version="1.0" standalone="no"?>
<!DOCTYPE svg PUBLIC "-//W3C//DTD SVG 20010904//EN"
 "http://www.w3.org/TR/2001/REC-SVG-20010904/DTD/svg10.dtd">
<svg version="1.0" xmlns="http://www.w3.org/2000/svg"
 width="960.000000pt" height="960.000000pt" viewBox="0 0 960.000000 960.000000"
 preserveAspectRatio="xMidYMid meet">
<metadata>
Created by potrace 1.11, written by Peter Selinger 2001-2013
</metadata>
<g transform="translate(0.000000,960.000000) scale(0.100000,-0.100000)"
fill="#000000" stroke="none">
<path d="M500 7500 c-41 -11 -83 -24 -92 -30 -10 -5 -25 -10 -33 -10 -8 0 -15
-4 -15 -10 0 -5 -6 -10 -13 -10 -16 0 -89 -52 -141 -99 -54 -51 -113 -133
-144 -199 -64 -143 -60 17 -61 -2342 0 -2306 -3 -2184 51 -2315 35 -84 71
-139 137 -204 72 -72 86 -82 163 -122 84 -43 89 -45 123 -53 17 -3 41 -9 55
-13 14 -4 1280 -7 2815 -7 l2790 -1 -1 463 0 462 46 0 c73 1 307 1 407 1 l92
-1 -1 -100 c0 -56 2 -103 5 -106 2 -3 2 -19 -2 -37 -4 -18 -5 -43 -4 -57 5
-35 3 -122 -3 -131 -2 -4 0 -10 5 -13 5 -3 6 -21 2 -38 -4 -18 -6 -42 -4 -53
3 -31 4 -55 3 -118 0 -32 2 -62 5 -67 3 -6 3 -10 -2 -10 -4 0 -7 -33 -6 -72 1
-40 2 -85 3 -100 l0 -26 1188 2 c1114 2 1190 3 1242 20 251 83 417 263 469
511 8 38 8 1063 0 1090 -15 49 -30 74 -69 114 -46 47 -61 54 -170 83 -41 11
-79 23 -85 28 -5 5 -14 9 -20 10 -26 5 -107 46 -168 87 -205 138 -357 373
-394 612 -9 59 -10 243 0 299 39 242 193 491 380 618 23 16 44 32 47 35 12 15
182 90 250 109 96 28 126 44 171 91 77 80 74 53 76 629 2 439 0 525 -13 580
-9 36 -17 70 -18 76 -4 22 -69 148 -90 173 -93 114 -207 197 -336 243 l-65 23
-1192 3 -1193 3 0 -466 0 -465 -273 0 -272 0 0 463 0 462 -2785 2 c-2715 2
-2787 1 -2860 -17z m2643 -1422 c15 -15 51 -110 105 -273 46 -137 87 -259 92
-270 5 -11 14 -38 20 -60 6 -22 14 -47 17 -55 4 -8 7 -18 8 -22 2 -5 4 -10 5
-13 1 -3 3 -8 4 -12 5 -23 39 -121 49 -141 20 -41 43 -46 240 -48 104 -1 191
-4 194 -7 3 -3 15 -2 28 3 13 5 25 7 28 4 2 -3 103 -6 223 -8 263 -3 273 -7
274 -98 0 -44 -9 -55 -89 -115 -226 -168 -266 -199 -269 -205 -2 -5 -10 -8
-18 -8 -8 0 -14 -3 -14 -7 0 -5 -21 -21 -45 -38 -25 -16 -45 -33 -45 -37 0 -5
-4 -8 -10 -8 -5 0 -37 -21 -71 -48 -33 -26 -71 -54 -83 -62 -51 -34 -85 -69
-91 -93 -4 -15 1 -49 13 -84 11 -32 53 -159 92 -283 40 -124 79 -245 87 -270
8 -25 16 -52 18 -60 2 -8 4 -16 5 -17 2 -2 3 -6 5 -10 1 -5 4 -15 8 -23 40
-97 37 -176 -6 -199 -47 -24 -70 -19 -137 27 -36 25 -78 55 -95 66 -16 12 -32
23 -35 26 -3 3 -123 90 -267 193 -267 191 -301 209 -348 184 -11 -5 -80 -53
-153 -106 -74 -53 -152 -109 -175 -124 -22 -16 -118 -85 -212 -152 -157 -113
-175 -124 -209 -120 -47 4 -86 39 -86 76 0 15 18 84 40 153 23 69 41 129 42
133 0 5 6 24 14 43 7 19 41 123 74 230 34 107 69 215 77 240 27 84 19 97 -140
215 -78 58 -151 113 -162 121 -136 103 -368 274 -371 274 -2 0 -13 9 -25 21
-42 42 -30 134 19 154 9 4 121 9 247 11 127 2 325 5 440 7 248 4 258 7 282 92
25 91 267 791 274 794 6 1 15 9 22 17 20 22 85 17 110 -8z m3532 -40 c1 -15 4
-30 7 -33 3 -3 3 -20 -1 -38 -4 -18 -5 -43 -4 -57 5 -35 3 -122 -3 -131 -2 -4
0 -10 5 -13 5 -3 6 -21 2 -38 -4 -18 -6 -42 -4 -53 3 -31 4 -55 3 -118 0 -32
2 -62 5 -67 3 -6 3 -10 -2 -10 -7 0 -8 -99 -3 -245 0 -16 0 -62 1 -100 l0 -71
-273 0 -274 0 2 496 c1 272 2 497 3 500 0 3 121 5 269 5 l267 0 0 -27z m5
-1632 c0 -72 1 -138 1 -146 0 -8 -1 -50 -2 -93 -1 -43 1 -80 4 -83 2 -3 2 -19
-2 -37 -4 -18 -5 -43 -4 -57 5 -35 3 -122 -3 -131 -2 -4 0 -10 5 -13 5 -3 6
-21 2 -38 -4 -18 -5 -44 -4 -58 5 -37 5 -38 2 -130 l-2 -85 -261 1 c-144 0
-266 3 -272 6 -7 5 -9 172 -8 500 1 271 2 494 3 494 0 1 122 1 270 1 l269 0 2
-131z"/>
</g>
</svg>
